<svg width="170" height="259" viewBox="0 0 170 259" fill="none" xmlns="http://www.w3.org/2000/svg">
<g id="cba-svg-mobile">
<g id="cba shadow mobile" filter="url(#filter0_f_12_420)">
<path d="M37.534 202.104C37.4724 200.318 37.4101 198.531 37.3496 196.744C37.3275 196.09 37.3095 195.437 37.2897 194.784C37.2359 194.371 37.182 193.959 37.1281 193.547C37.1005 191.207 37.0729 188.867 37.0453 186.527C36.968 186.045 36.8906 185.564 36.8132 185.083C36.8102 183.784 36.8071 182.485 36.8041 181.186C36.7261 180.866 36.648 180.546 36.57 180.226C36.5673 178.927 36.5646 177.629 36.562 176.33C36.5086 176.08 36.4552 175.829 36.4017 175.578C36.3714 175.087 36.3411 174.596 36.3108 174.104C36.3313 172.093 36.3517 170.082 36.3722 168.07C36.454 167.913 36.5357 167.755 36.6175 167.597C36.856 167.365 37.0946 167.134 37.3331 166.902C37.3986 166.812 37.4641 166.722 37.5296 166.632C37.7748 166.469 38.02 166.306 38.2653 166.144C38.8434 166.954 39.215 166.731 39.4657 165.904C39.3944 164.627 38.9773 163.337 39.9315 162.148C40.3363 161.644 40.4964 160.943 40.7677 160.332C40.8208 160.163 40.8738 159.994 40.9269 159.825C40.9387 159.663 40.9505 159.5 40.9624 159.337C40.8875 159.249 40.8126 159.162 40.7378 159.074L40.7367 159.081C40.6546 158.989 40.5724 158.897 40.4902 158.805C41.007 156.608 42.8088 154.814 42.4617 152.323C42.3871 151.787 42.7755 151.187 42.9506 150.617C43.0056 150.125 43.0607 149.632 43.1158 149.14C44.0529 147.608 43.6148 145.799 44.1202 144.182C44.2046 143.912 44.3835 143.643 44.5883 143.445C45.3503 142.709 45.9149 141.988 45.2446 140.849C44.9191 140.296 44.82 139.61 44.6184 138.984C44.7077 138.891 44.797 138.798 44.8863 138.705C44.9485 138.62 45.0106 138.534 45.0728 138.448C45.0033 138.274 44.9338 138.101 44.8643 137.927C44.2582 137.265 43.652 136.603 43.3164 136.236C43.7021 134.671 44.0722 133.501 44.2625 132.302C44.4475 131.137 43.5213 130.548 42.4016 130.774C41.4045 130.975 40.3473 130.879 39.3166 130.914C39.2161 130.845 39.1157 130.776 39.0153 130.707C37.2374 130.667 35.4595 130.626 33.6817 130.586C33.7218 130.528 33.7162 130.476 33.6647 130.427C33.6622 129.792 33.6597 129.157 33.6573 128.521C33.5799 128.094 33.6032 127.613 33.4056 127.252C32.8985 126.326 32.4355 125.585 32.8684 124.33C33.3532 122.925 31.0817 119.568 29.6727 118.962C27.8342 118.172 25.9762 117.417 24.1901 116.521C23.3674 116.108 22.7758 115.119 21.9385 114.875C20.3158 114.401 19.2224 113.105 17.6844 112.804C16.1934 112.674 14.7002 112.561 13.2159 112.376C13.1072 112.363 12.9593 111.809 13.0104 111.541C13.1241 110.943 13.4961 110.371 13.5088 109.783C13.5615 107.357 13.5194 104.928 13.5122 102.501C13.5216 100.648 13.5311 98.7957 13.5405 96.9432C13.6135 96.6471 13.7484 96.3513 13.7496 96.0549C13.7588 93.7632 13.7422 91.4714 13.7336 89.1796C13.7374 88.3543 13.7413 87.5291 13.7451 86.7039C13.7461 84.6205 13.7471 82.5371 13.7481 80.4537C13.6927 79.174 13.5571 77.8905 13.6168 76.6161C13.6456 76.0004 14.0203 75.3928 14.2752 74.7974C14.9108 73.3129 15.6219 71.8585 16.2026 70.3533C17.0377 68.1889 17.7819 65.9895 18.5699 63.8068C18.7594 63.2819 18.9684 62.764 19.1685 62.2429C19.2244 62.0705 19.2803 61.8982 19.3361 61.7259C19.3553 61.654 19.3843 61.5863 19.4231 61.5228C19.5441 61.1873 19.6651 60.8518 19.7861 60.5163C19.8218 60.4436 19.8576 60.3709 19.8933 60.2982C19.9484 60.1268 20.0036 59.9555 20.0587 59.7842C20.0804 59.7111 20.1086 59.6405 20.1432 59.5726C20.2004 59.481 20.2575 59.3896 20.3147 59.2981C20.5792 58.4979 20.8437 57.6977 21.1082 56.8975C21.1656 56.7267 21.2231 56.556 21.2805 56.3853C21.2616 56.2889 21.2427 56.1926 21.2243 56.0967C21.3271 55.8686 21.4293 55.64 21.5316 55.4114C21.6332 55.0974 21.7348 54.7834 21.8364 54.4694C21.8939 54.2986 21.9513 54.1279 22.0088 53.9571C22.0356 53.8063 22.0623 53.6555 22.0891 53.5046C22.1376 53.3325 22.1862 53.1605 22.2347 52.9885C22.9924 50.4884 23.75 47.9884 24.5076 45.4883C24.564 45.3161 24.6204 45.144 24.6767 44.9719C24.7844 44.6583 24.8921 44.3447 24.9997 44.0311C25.0564 43.8591 25.1131 43.6873 25.1698 43.5154C25.437 42.5548 25.7041 41.5943 25.9712 40.6337C26.0275 40.4609 26.0838 40.2881 26.1402 40.1153C26.2437 39.8013 26.3473 39.4872 26.4508 39.1731C26.6115 39.007 26.7722 38.8409 26.9329 38.6749C29.1025 38.1744 31.2721 37.6739 33.4418 37.1734C33.8781 37.0759 34.3144 36.9784 34.7506 36.8809C35.3689 36.7549 35.9872 36.629 36.6055 36.5029C36.7757 36.3349 36.9459 36.167 37.1161 35.9991C37.2693 35.9031 37.4225 35.807 37.5756 35.711C37.6675 35.6451 37.7595 35.5791 37.8515 35.5131C38.7308 34.7148 39.61 33.9165 40.4893 33.1182C40.6645 33.0285 40.8397 32.9389 41.015 32.8493C41.8917 32.0486 42.7684 31.248 43.6451 30.4472C43.8203 30.3575 43.9955 30.2679 44.1708 30.1783C44.3898 29.929 44.6088 29.6796 44.8279 29.4302C44.7471 29.2708 44.6663 29.1114 44.5855 28.9521C44.581 28.7065 44.5765 28.4609 44.572 28.2152C44.4962 27.9752 44.4203 27.7351 44.3444 27.495C44.3397 27.2472 44.335 26.9993 44.3304 26.7515C44.2644 26.6595 44.1984 26.5675 44.1324 26.4755C43.8299 24.4582 43.5273 22.4409 43.2245 20.4238C43.2273 20.2785 43.2304 20.1331 43.2335 19.9876C43.1954 19.8974 43.1573 19.8072 43.1192 19.717C43.0421 19.4769 42.965 19.2367 42.8879 18.9966C42.8832 18.7488 42.8785 18.5009 42.8738 18.2531C42.8079 18.1611 42.7419 18.0691 42.6759 17.9771C42.6494 17.4812 42.6229 16.9853 42.5921 16.4086C43.0682 16.4522 43.4743 16.4894 43.8804 16.5267C44.2039 16.377 44.5274 16.2272 44.8509 16.0775C47.6831 15.661 50.5154 15.2446 53.3476 14.8281C53.5179 14.7761 53.6882 14.7241 53.8585 14.672C54.2547 14.6431 54.6509 14.6142 55.0472 14.5854C55.4571 14.5183 55.867 14.4512 56.2769 14.3842C56.4334 14.3703 56.5899 14.3564 56.7465 14.3426C57.1584 14.2763 57.5703 14.21 57.9823 14.1438C58.7033 14.0481 59.4242 13.9525 60.1452 13.857C60.6285 13.7872 61.1118 13.7173 61.5951 13.6474C63.4468 13.3151 65.2671 12.6125 67.1962 13.2736C67.638 13.425 68.1416 13.396 68.6169 13.45C68.7855 13.5046 68.9542 13.5593 69.1228 13.614C69.4494 13.6186 69.7759 13.6231 70.1024 13.6277C70.3423 13.7041 70.5821 13.7805 70.822 13.8569C71.1482 13.8625 71.4744 13.8681 71.8006 13.8737C72.0408 13.9491 72.281 14.0244 72.5213 14.0997C73.2582 14.2475 73.9951 14.3953 74.7318 14.5433C75.2086 14.5575 75.6854 14.5714 76.1622 14.5854C77.9133 14.7684 78.1964 15.1067 78.7432 17.7178C79.9992 17.8123 81.2099 18.0745 81.8797 16.4127C82.2933 15.3868 83.4511 15.8904 84.2792 15.9144C84.5146 15.9213 84.7331 16.5056 84.9593 16.825C84.8525 16.9759 84.7458 17.1268 84.639 17.2778L84.6476 17.2697C84.6481 17.3701 84.6485 17.4705 84.649 17.5708C84.6508 17.6406 84.661 17.7092 84.6797 17.7766C84.829 17.9574 84.9784 18.1382 85.1278 18.319C85.8582 18.6966 86.5886 19.0741 87.319 19.4517C87.4814 19.533 87.6438 19.6143 87.8062 19.6956C87.9769 19.627 88.1477 19.5583 88.3185 19.4896C89.2053 19.3169 90.0921 19.1441 90.9788 18.9714C91.2185 19.0466 91.4582 19.1218 91.6979 19.197C91.9437 19.2028 92.1895 19.2085 92.4354 19.2142C92.675 19.2894 92.9147 19.3646 93.1544 19.4398C93.8001 19.4532 94.4458 19.4666 95.0916 19.4799C95.0305 19.6147 94.9693 19.7496 94.9082 19.8845C95.2061 19.8964 95.504 19.9083 95.802 19.9202C95.8982 20.0215 95.9945 20.1228 96.0906 20.224C96.069 20.3033 96.073 20.3815 96.1026 20.4584L96.036 21.1799C96.1375 21.4217 96.2391 21.6634 96.3406 21.9051C96.5621 22.0731 96.7837 22.2411 97.0053 22.4091C97.0266 22.9713 97.048 23.5336 97.0692 24.0958C97.1383 24.1635 97.2075 24.2312 97.2766 24.2989C98.9927 24.323 100.709 24.3472 102.425 24.3713C103.056 24.4339 103.687 24.4964 104.318 24.5589L104.266 24.6207L104.319 24.6815C104.495 24.6574 104.672 24.6338 104.849 24.6102C105.091 24.6099 105.333 24.6097 105.575 24.6094C106.039 24.6705 106.503 24.7316 106.966 24.7926C107.024 24.8508 107.093 24.87 107.173 24.8502C107.451 24.8462 107.729 24.8424 108.006 24.8386C108.245 24.8344 108.484 24.8301 108.723 24.8258C109.117 24.8986 109.511 24.9713 109.906 25.0441C110.151 25.1096 110.396 25.175 110.641 25.2406C111.122 25.2712 111.603 25.3016 112.084 25.3321C112.333 25.4068 112.581 25.4815 112.83 25.5561C112.912 25.4997 112.994 25.4432 113.076 25.3867L113.061 25.3059C113.374 25.2929 113.686 25.2798 113.999 25.2668C115.87 25.5261 117.742 25.7854 119.613 26.0447C119.614 26.1228 119.616 26.2009 119.618 26.279C119.518 26.5198 119.417 26.7606 119.317 27.0014C119.208 27.0829 119.099 27.1644 118.99 27.246C119.099 27.3276 119.208 27.4093 119.317 27.4909C119.372 27.733 119.344 28.0705 119.495 28.2018C120.444 29.0274 120.59 30.1676 120.856 31.2896C120.978 31.804 121.32 32.274 121.601 32.7407C121.866 33.1795 122.181 33.5875 122.474 34.0091C122.568 34.2012 122.662 34.3934 122.756 34.5855C122.83 34.8043 122.905 35.0231 122.98 35.2419C123.154 35.4065 123.329 35.571 123.503 35.7356C124.232 35.6484 124.96 35.5612 125.689 35.474C126.011 35.4724 126.333 35.4707 126.655 35.469C126.869 35.5538 127.083 35.6385 127.295 35.7222C127.389 35.7343 127.484 35.7473 127.579 35.7603C129.232 35.7804 128.79 36.9821 128.802 37.9281C128.699 38.0733 128.597 38.2185 128.495 38.3638C128.487 38.4612 128.48 38.5586 128.473 38.656C128.349 38.8833 128.223 39.1106 128.098 39.3378C128.242 39.9756 127.51 40.7237 128.342 41.275C128.199 41.4513 128.055 41.6276 127.912 41.8039C127.908 42.4578 127.905 43.1118 127.901 43.7657C127.969 43.8561 128.037 43.9466 128.105 44.037C128.101 44.0977 128.079 44.1507 128.038 44.1962C128.137 44.393 128.236 44.5898 128.335 44.7866C128.349 44.8517 128.365 44.916 128.385 44.9795C128.451 45.0766 128.518 45.1736 128.584 45.2707C128.734 45.4182 128.885 45.5657 129.036 45.7132C129.131 45.7814 129.226 45.8496 129.321 45.9177C130.465 47.7243 132.31 47.0654 133.922 47.2268C134.096 47.2305 134.271 47.2347 134.445 47.2388C134.533 47.2222 134.621 47.2056 134.709 47.1887C134.773 47.1931 134.836 47.1847 134.896 47.1632C137.057 47.2383 139.221 47.2767 141.378 47.4152C141.9 47.4487 142.401 47.8125 142.913 48.0245L142.904 47.9992C142.99 48.3299 143.077 48.6606 143.163 48.9913C143.127 49.0427 143.123 49.0965 143.151 49.1526C143.158 49.2185 143.164 49.2846 143.169 49.3508L143.388 49.6065L143.384 49.5946C143.468 49.6945 143.552 49.7942 143.636 49.894C143.621 50.021 143.606 50.1481 143.591 50.2752C143.686 50.4658 143.782 50.6564 143.878 50.8469C143.88 50.9077 143.878 50.9682 143.872 51.0287C143.955 51.211 144.038 51.3933 144.121 51.5756C144.117 51.6331 144.108 51.6899 144.095 51.746C144.182 52.0167 144.269 52.2873 144.357 52.5579C144.355 52.61 144.341 52.6588 144.315 52.7042C144.411 52.897 144.506 53.0896 144.602 53.2823C144.618 53.5095 144.635 53.7366 144.651 53.9637C144.72 54.0516 144.788 54.1395 144.857 54.2274C145.029 54.4624 145.2 54.6975 145.372 54.9325C145.44 55.0206 145.509 55.1087 145.577 55.1969L145.568 55.1808C145.653 55.2748 145.738 55.3687 145.822 55.4626C146.549 56.2759 147.277 57.0892 148.004 57.9021C148.158 58.0469 148.313 58.1921 148.468 58.3373C148.878 58.3452 149.289 58.353 149.7 58.3609C149.776 58.4363 149.853 58.5117 149.929 58.5872C149.95 58.6636 149.968 58.7406 149.983 58.8183C149.962 59.0666 149.94 59.3149 149.919 59.5632C149.911 59.7896 149.903 60.0159 149.895 60.2424C149.847 60.366 149.799 60.4895 149.75 60.6131C149.982 60.6492 150.213 60.6853 150.445 60.7214C150.537 60.759 150.63 60.7966 150.723 60.8338C150.784 60.8288 150.846 60.8244 150.908 60.82C151.919 60.9734 152.929 61.1268 153.939 61.28C154.232 61.4203 154.524 61.5608 154.816 61.7014C154.893 62.0349 154.97 62.3684 155.047 62.7019C155.047 63.0172 155.048 63.3324 155.048 63.6477C155.048 63.884 155.047 64.1203 155.047 64.3566C154.953 64.5424 154.859 64.7281 154.764 64.9139C154.706 65.0666 154.648 65.2193 154.59 65.372C154.566 65.5438 154.541 65.7156 154.517 65.8873C154.461 66.0395 154.405 66.1917 154.349 66.3439C154.326 66.5145 154.302 66.685 154.279 66.8556C153.797 68.6252 153.316 70.3948 152.835 72.1644C152.712 72.2913 152.589 72.4183 152.466 72.5453C152.427 72.9849 152.388 73.4245 152.349 73.864C152.226 73.991 152.104 74.118 151.981 74.245C151.942 74.6846 151.903 75.1241 151.864 75.5637C151.741 75.6907 151.618 75.8177 151.495 75.9447C151.456 76.3843 151.417 76.8238 151.378 77.2634C151.268 77.4025 151.157 77.5417 151.046 77.6808C150.995 78.1082 150.944 78.5357 150.893 78.9631C150.782 79.1022 150.671 79.2413 150.561 79.3805C150.263 80.7292 150.02 82.0929 149.656 83.4237C148.888 86.2356 148.057 89.0303 147.251 91.8321C147.128 91.9591 147.006 92.0861 146.883 92.213C146.844 92.6526 146.805 93.0922 146.766 93.5318C146.643 93.6587 146.52 93.7857 146.397 93.9127C146.358 94.3523 146.319 94.7919 146.28 95.2314C146.157 95.3584 146.035 95.4854 145.912 95.6124C145.711 96.6185 145.51 97.6247 145.309 98.6308C145.199 98.7699 145.088 98.9091 144.978 99.0482C144.785 99.6683 144.752 100.423 144.366 100.88C143.622 101.762 142.68 102.476 141.82 103.26C141.782 103.306 141.748 103.357 141.72 103.411C141.26 103.907 140.8 104.404 140.315 104.927C140.476 105.236 140.667 105.602 140.858 105.966C140.948 106.113 141.037 106.26 141.126 106.407C141.142 106.655 141.159 106.904 141.175 107.153C141.258 107.308 141.342 107.463 141.425 107.618C141.419 107.941 141.414 108.263 141.408 108.586C141.297 108.806 141.186 109.026 141.075 109.246C141.041 110.489 141.008 111.733 140.974 112.977C141.057 113.132 141.139 113.288 141.222 113.444C142.778 114.512 143.03 116.011 142.745 117.757C142.546 118.976 142.507 120.222 142.396 121.455C142.25 121.622 142.104 121.788 141.957 121.955C141.957 122.108 141.956 122.261 141.956 122.414C142.084 122.502 142.213 122.589 142.342 122.676C142.922 124.702 144.292 126.068 146.03 127.144C146.559 127.471 147.033 127.886 147.533 128.261C147.67 128.422 147.808 128.583 147.946 128.744C147.92 128.849 147.895 128.955 147.87 129.059C147.989 129.276 148.105 129.495 148.222 129.714C148.319 130.201 148.416 130.688 148.513 131.175C148.593 131.341 148.674 131.507 148.754 131.673L148.734 131.645C148.82 132.018 148.907 132.392 148.994 132.765C149.842 134.092 150.863 135.346 151.475 136.775C151.857 137.669 152.383 138.626 152.115 139.837C151.996 140.376 152.893 141.189 152.618 142.068C152.48 142.105 152.341 142.141 152.202 142.178C152.341 142.241 152.48 142.303 152.618 142.366C152.694 142.603 152.771 142.839 152.847 143.076C152.847 143.232 152.847 143.388 152.847 143.544C152.531 143.716 152.215 143.888 151.899 144.061C151.65 144.132 151.402 144.204 151.154 144.276C151.024 144.484 150.893 144.692 150.763 144.901C151.207 146.768 151.291 146.877 153.345 146.936C154.453 146.968 154.649 147.828 155.046 148.533C155.197 148.802 155.221 149.231 155.437 149.359C156.874 150.215 157.018 151.878 156.851 153.01C156.574 154.894 157.38 156.738 156.758 158.571C156.668 158.837 156.705 159.218 156.831 159.472C157.124 160.06 156.866 160.298 156.463 160.755C154.574 162.902 152.074 164.559 151.017 167.39C150.935 167.609 150.816 167.866 150.635 167.988C148.947 169.129 148.638 171.195 147.461 172.674C147.238 172.992 147.014 173.311 146.79 173.629C146.768 173.715 146.746 173.801 146.724 173.887C146.587 174.05 146.45 174.213 146.313 174.376C144.846 176.699 143.375 179.021 141.912 181.347C140.626 183.393 139.366 185.455 138.065 187.49C136.728 189.583 135.331 191.637 134.005 193.736C132.971 195.374 132.023 197.065 131.007 198.715C129.577 201.038 128.154 203.368 126.662 205.652C125.561 207.338 124.306 208.924 123.207 210.612C121.93 212.573 120.855 214.671 119.494 216.567C118.293 218.24 116.818 219.717 115.464 221.28C110.131 221.279 104.798 221.279 99.4652 221.278C99.3047 221.627 99.0057 221.975 99.0041 222.324C98.9669 230.294 98.9622 238.264 98.9514 246.234C95.727 246.266 92.5027 246.299 89.2783 246.331C88.3861 246.329 87.4939 246.327 86.6016 246.324C81.2623 246.322 75.923 246.32 70.5837 246.318C69.612 246.316 68.6403 246.314 67.6686 246.312C63.2195 246.308 58.7704 246.305 54.3213 246.301C53.7593 246.289 53.1974 246.267 52.6353 246.266C47.6935 246.249 42.7517 246.235 37.8099 246.221C37.7434 246.154 37.6769 246.086 37.6104 246.019C37.5979 245.457 37.5765 244.896 37.5744 244.334C37.5569 239.715 37.5431 235.095 37.5281 230.476C37.5301 221.019 37.5321 211.562 37.534 202.104Z" fill="url(#paint0_linear_12_420)"/>
</g>
<mask id="mask0_12_420" style="mask-type:alpha" maskUnits="userSpaceOnUse" x="13" y="13" width="144" height="234">
<path id="cba shape back mobile" d="M37.534 202.104C37.4724 200.318 37.4101 198.531 37.3496 196.744C37.3275 196.09 37.3095 195.437 37.2897 194.784C37.2359 194.371 37.182 193.959 37.1281 193.547C37.1005 191.207 37.0729 188.867 37.0453 186.527C36.968 186.045 36.8906 185.564 36.8132 185.083C36.8102 183.784 36.8071 182.485 36.8041 181.186C36.7261 180.866 36.648 180.546 36.57 180.226C36.5673 178.927 36.5646 177.629 36.562 176.33C36.5086 176.08 36.4552 175.829 36.4017 175.578C36.3714 175.087 36.3411 174.596 36.3108 174.104C36.3313 172.093 36.3517 170.082 36.3722 168.07C36.454 167.913 36.5357 167.755 36.6175 167.597C36.856 167.365 37.0946 167.134 37.3331 166.902C37.3986 166.812 37.4641 166.722 37.5296 166.632C37.7748 166.469 38.02 166.306 38.2653 166.144C38.8434 166.954 39.215 166.731 39.4657 165.904C39.3944 164.627 38.9773 163.337 39.9315 162.148C40.3363 161.644 40.4964 160.943 40.7677 160.332C40.8208 160.163 40.8738 159.994 40.9269 159.825C40.9387 159.663 40.9505 159.5 40.9624 159.337C40.8875 159.249 40.8126 159.162 40.7378 159.074L40.7367 159.081C40.6546 158.989 40.5724 158.897 40.4902 158.805C41.007 156.608 42.8088 154.814 42.4617 152.323C42.3871 151.787 42.7755 151.187 42.9506 150.617C43.0056 150.125 43.0607 149.632 43.1158 149.14C44.0529 147.608 43.6148 145.799 44.1202 144.182C44.2046 143.912 44.3835 143.643 44.5883 143.445C45.3503 142.709 45.9149 141.988 45.2446 140.849C44.9191 140.296 44.82 139.61 44.6184 138.984C44.7077 138.891 44.797 138.798 44.8863 138.705C44.9485 138.62 45.0106 138.534 45.0728 138.448C45.0033 138.274 44.9338 138.101 44.8643 137.927C44.2582 137.265 43.652 136.603 43.3164 136.236C43.7021 134.671 44.0722 133.501 44.2625 132.302C44.4475 131.137 43.5213 130.548 42.4016 130.774C41.4045 130.975 40.3473 130.879 39.3166 130.914C39.2161 130.845 39.1157 130.776 39.0153 130.707C37.2374 130.667 35.4595 130.626 33.6817 130.586C33.7218 130.528 33.7162 130.476 33.6647 130.427C33.6622 129.792 33.6597 129.157 33.6573 128.521C33.5799 128.094 33.6032 127.613 33.4056 127.252C32.8985 126.326 32.4355 125.585 32.8684 124.33C33.3532 122.925 31.0817 119.568 29.6727 118.962C27.8342 118.172 25.9762 117.417 24.1901 116.521C23.3674 116.108 22.7758 115.119 21.9385 114.875C20.3158 114.401 19.2224 113.105 17.6844 112.804C16.1934 112.674 14.7002 112.561 13.2159 112.376C13.1072 112.363 12.9593 111.809 13.0104 111.541C13.1241 110.943 13.4961 110.371 13.5088 109.783C13.5615 107.357 13.5194 104.928 13.5122 102.501C13.5216 100.648 13.5311 98.7957 13.5405 96.9432C13.6135 96.6471 13.7484 96.3513 13.7496 96.0549C13.7588 93.7632 13.7422 91.4714 13.7336 89.1796C13.7374 88.3543 13.7413 87.5291 13.7451 86.7039C13.7461 84.6205 13.7471 82.5371 13.7481 80.4537C13.6927 79.174 13.5571 77.8905 13.6168 76.6161C13.6456 76.0004 14.0203 75.3928 14.2752 74.7974C14.9108 73.3129 15.6219 71.8585 16.2026 70.3533C17.0377 68.1889 17.7819 65.9895 18.5699 63.8068C18.7594 63.2819 18.9684 62.764 19.1685 62.2429C19.2244 62.0705 19.2803 61.8982 19.3361 61.7259C19.3553 61.654 19.3843 61.5863 19.4231 61.5228C19.5441 61.1873 19.6651 60.8518 19.7861 60.5163C19.8218 60.4436 19.8576 60.3709 19.8933 60.2982C19.9484 60.1268 20.0036 59.9555 20.0587 59.7842C20.0804 59.7111 20.1086 59.6405 20.1432 59.5726C20.2004 59.481 20.2575 59.3896 20.3147 59.2981C20.5792 58.4979 20.8437 57.6977 21.1082 56.8975C21.1656 56.7267 21.2231 56.556 21.2805 56.3853C21.2616 56.2889 21.2427 56.1926 21.2243 56.0967C21.3271 55.8686 21.4293 55.64 21.5316 55.4114C21.6332 55.0974 21.7348 54.7834 21.8364 54.4694C21.8939 54.2986 21.9513 54.1279 22.0088 53.9571C22.0356 53.8063 22.0623 53.6555 22.0891 53.5046C22.1376 53.3325 22.1862 53.1605 22.2347 52.9885C22.9924 50.4884 23.75 47.9884 24.5076 45.4883C24.564 45.3161 24.6204 45.144 24.6767 44.9719C24.7844 44.6583 24.8921 44.3447 24.9997 44.0311C25.0564 43.8591 25.1131 43.6873 25.1698 43.5154C25.437 42.5548 25.7041 41.5943 25.9712 40.6337C26.0275 40.4609 26.0838 40.2881 26.1402 40.1153C26.2437 39.8013 26.3473 39.4872 26.4508 39.1731C26.6115 39.007 26.7722 38.8409 26.9329 38.6749C29.1025 38.1744 31.2721 37.6739 33.4418 37.1734C33.8781 37.0759 34.3144 36.9784 34.7506 36.8809C35.3689 36.7549 35.9872 36.629 36.6055 36.5029C36.7757 36.3349 36.9459 36.167 37.1161 35.9991C37.2693 35.9031 37.4225 35.807 37.5756 35.711C37.6675 35.6451 37.7595 35.5791 37.8515 35.5131C38.7308 34.7148 39.61 33.9165 40.4893 33.1182C40.6645 33.0285 40.8397 32.9389 41.015 32.8493C41.8917 32.0486 42.7684 31.248 43.6451 30.4472C43.8203 30.3575 43.9955 30.2679 44.1708 30.1783C44.3898 29.929 44.6088 29.6796 44.8279 29.4302C44.7471 29.2708 44.6663 29.1114 44.5855 28.9521C44.581 28.7065 44.5765 28.4609 44.572 28.2152C44.4962 27.9752 44.4203 27.7351 44.3444 27.495C44.3397 27.2472 44.335 26.9993 44.3304 26.7515C44.2644 26.6595 44.1984 26.5675 44.1324 26.4755C43.8299 24.4582 43.5273 22.4409 43.2245 20.4238C43.2273 20.2785 43.2304 20.1331 43.2335 19.9876C43.1954 19.8974 43.1573 19.8072 43.1192 19.717C43.0421 19.4769 42.965 19.2367 42.8879 18.9966C42.8832 18.7488 42.8785 18.5009 42.8738 18.2531C42.8079 18.1611 42.7419 18.0691 42.6759 17.9771C42.6494 17.4812 42.6229 16.9853 42.5921 16.4086C43.0682 16.4522 43.4743 16.4894 43.8804 16.5267C44.2039 16.377 44.5274 16.2272 44.8509 16.0775C47.6831 15.661 50.5154 15.2446 53.3476 14.8281C53.5179 14.7761 53.6882 14.7241 53.8585 14.672C54.2547 14.6431 54.6509 14.6142 55.0472 14.5854C55.4571 14.5183 55.867 14.4512 56.2769 14.3842C56.4334 14.3703 56.5899 14.3564 56.7465 14.3426C57.1584 14.2763 57.5703 14.21 57.9823 14.1438C58.7033 14.0481 59.4242 13.9525 60.1452 13.857C60.6285 13.7872 61.1118 13.7173 61.5951 13.6474C63.4468 13.3151 65.2671 12.6125 67.1962 13.2736C67.638 13.425 68.1416 13.396 68.6169 13.45C68.7855 13.5046 68.9542 13.5593 69.1228 13.614C69.4494 13.6186 69.7759 13.6231 70.1024 13.6277C70.3423 13.7041 70.5821 13.7805 70.822 13.8569C71.1482 13.8625 71.4744 13.8681 71.8006 13.8737C72.0408 13.9491 72.281 14.0244 72.5213 14.0997C73.2582 14.2475 73.9951 14.3953 74.7318 14.5433C75.2086 14.5575 75.6854 14.5714 76.1622 14.5854C77.9133 14.7684 78.1964 15.1067 78.7432 17.7178C79.9992 17.8123 81.2099 18.0745 81.8797 16.4127C82.2933 15.3868 83.4511 15.8904 84.2792 15.9144C84.5146 15.9213 84.7331 16.5056 84.9593 16.825C84.8525 16.9759 84.7458 17.1268 84.639 17.2778L84.6476 17.2697C84.6481 17.3701 84.6485 17.4705 84.649 17.5708C84.6508 17.6406 84.661 17.7092 84.6797 17.7766C84.829 17.9574 84.9784 18.1382 85.1278 18.319C85.8582 18.6966 86.5886 19.0741 87.319 19.4517C87.4814 19.533 87.6438 19.6143 87.8062 19.6956C87.9769 19.627 88.1477 19.5583 88.3185 19.4896C89.2053 19.3169 90.0921 19.1441 90.9788 18.9714C91.2185 19.0466 91.4582 19.1218 91.6979 19.197C91.9437 19.2028 92.1895 19.2085 92.4354 19.2142C92.675 19.2894 92.9147 19.3646 93.1544 19.4398C93.8001 19.4532 94.4458 19.4666 95.0916 19.4799C95.0305 19.6147 94.9693 19.7496 94.9082 19.8845C95.2061 19.8964 95.504 19.9083 95.802 19.9202C95.8982 20.0215 95.9945 20.1228 96.0906 20.224C96.069 20.3033 96.073 20.3815 96.1026 20.4584L96.036 21.1799C96.1375 21.4217 96.2391 21.6634 96.3406 21.9051C96.5621 22.0731 96.7837 22.2411 97.0053 22.4091C97.0266 22.9713 97.048 23.5336 97.0692 24.0958C97.1383 24.1635 97.2075 24.2312 97.2766 24.2989C98.9927 24.323 100.709 24.3472 102.425 24.3713C103.056 24.4339 103.687 24.4964 104.318 24.5589L104.266 24.6207L104.319 24.6815C104.495 24.6574 104.672 24.6338 104.849 24.6102C105.091 24.6099 105.333 24.6097 105.575 24.6094C106.039 24.6705 106.503 24.7316 106.966 24.7926C107.024 24.8508 107.093 24.87 107.173 24.8502C107.451 24.8462 107.729 24.8424 108.006 24.8386C108.245 24.8344 108.484 24.8301 108.723 24.8258C109.117 24.8986 109.511 24.9713 109.906 25.0441C110.151 25.1096 110.396 25.175 110.641 25.2406C111.122 25.2712 111.603 25.3016 112.084 25.3321C112.333 25.4068 112.581 25.4815 112.83 25.5561C112.912 25.4997 112.994 25.4432 113.076 25.3867L113.061 25.3059C113.374 25.2929 113.686 25.2798 113.999 25.2668C115.87 25.5261 117.742 25.7854 119.613 26.0447C119.614 26.1228 119.616 26.2009 119.618 26.279C119.518 26.5198 119.417 26.7606 119.317 27.0014C119.208 27.0829 119.099 27.1644 118.99 27.246C119.099 27.3276 119.208 27.4093 119.317 27.4909C119.372 27.733 119.344 28.0705 119.495 28.2018C120.444 29.0274 120.59 30.1676 120.856 31.2896C120.978 31.804 121.32 32.274 121.601 32.7407C121.866 33.1795 122.181 33.5875 122.474 34.0091C122.568 34.2012 122.662 34.3934 122.756 34.5855C122.83 34.8043 122.905 35.0231 122.98 35.2419C123.154 35.4065 123.329 35.571 123.503 35.7356C124.232 35.6484 124.96 35.5612 125.689 35.474C126.011 35.4724 126.333 35.4707 126.655 35.469C126.869 35.5538 127.083 35.6385 127.295 35.7222C127.389 35.7343 127.484 35.7473 127.579 35.7603C129.232 35.7804 128.79 36.9821 128.802 37.9281C128.699 38.0733 128.597 38.2185 128.495 38.3638C128.487 38.4612 128.48 38.5586 128.473 38.656C128.349 38.8833 128.223 39.1106 128.098 39.3378C128.242 39.9756 127.51 40.7237 128.342 41.275C128.199 41.4513 128.055 41.6276 127.912 41.8039C127.908 42.4578 127.905 43.1118 127.901 43.7657C127.969 43.8561 128.037 43.9466 128.105 44.037C128.101 44.0977 128.079 44.1507 128.038 44.1962C128.137 44.393 128.236 44.5898 128.335 44.7866C128.349 44.8517 128.365 44.916 128.385 44.9795C128.451 45.0766 128.518 45.1736 128.584 45.2707C128.734 45.4182 128.885 45.5657 129.036 45.7132C129.131 45.7814 129.226 45.8496 129.321 45.9177C130.465 47.7243 132.31 47.0654 133.922 47.2268C134.096 47.2305 134.271 47.2347 134.445 47.2388C134.533 47.2222 134.621 47.2056 134.709 47.1887C134.773 47.1931 134.836 47.1847 134.896 47.1632C137.057 47.2383 139.221 47.2767 141.378 47.4152C141.9 47.4487 142.401 47.8125 142.913 48.0245L142.904 47.9992C142.99 48.3299 143.077 48.6606 143.163 48.9913C143.127 49.0427 143.123 49.0965 143.151 49.1526C143.158 49.2185 143.164 49.2846 143.169 49.3508L143.388 49.6065L143.384 49.5946C143.468 49.6945 143.552 49.7942 143.636 49.894C143.621 50.021 143.606 50.1481 143.591 50.2752C143.686 50.4658 143.782 50.6564 143.878 50.8469C143.88 50.9077 143.878 50.9682 143.872 51.0287C143.955 51.211 144.038 51.3933 144.121 51.5756C144.117 51.6331 144.108 51.6899 144.095 51.746C144.182 52.0167 144.269 52.2873 144.357 52.5579C144.355 52.61 144.341 52.6588 144.315 52.7042C144.411 52.897 144.506 53.0896 144.602 53.2823C144.618 53.5095 144.635 53.7366 144.651 53.9637C144.72 54.0516 144.788 54.1395 144.857 54.2274C145.029 54.4624 145.2 54.6975 145.372 54.9325C145.44 55.0206 145.509 55.1087 145.577 55.1969L145.568 55.1808C145.653 55.2748 145.738 55.3687 145.822 55.4626C146.549 56.2759 147.277 57.0892 148.004 57.9021C148.158 58.0469 148.313 58.1921 148.468 58.3373C148.878 58.3452 149.289 58.353 149.7 58.3609C149.776 58.4363 149.853 58.5117 149.929 58.5872C149.95 58.6636 149.968 58.7406 149.983 58.8183C149.962 59.0666 149.94 59.3149 149.919 59.5632C149.911 59.7896 149.903 60.0159 149.895 60.2424C149.847 60.366 149.799 60.4895 149.75 60.6131C149.982 60.6492 150.213 60.6853 150.445 60.7214C150.537 60.759 150.63 60.7966 150.723 60.8338C150.784 60.8288 150.846 60.8244 150.908 60.82C151.919 60.9734 152.929 61.1268 153.939 61.28C154.232 61.4203 154.524 61.5608 154.816 61.7014C154.893 62.0349 154.97 62.3684 155.047 62.7019C155.047 63.0172 155.048 63.3324 155.048 63.6477C155.048 63.884 155.047 64.1203 155.047 64.3566C154.953 64.5424 154.859 64.7281 154.764 64.9139C154.706 65.0666 154.648 65.2193 154.59 65.372C154.566 65.5438 154.541 65.7156 154.517 65.8873C154.461 66.0395 154.405 66.1917 154.349 66.3439C154.326 66.5145 154.302 66.685 154.279 66.8556C153.797 68.6252 153.316 70.3948 152.835 72.1644C152.712 72.2913 152.589 72.4183 152.466 72.5453C152.427 72.9849 152.388 73.4245 152.349 73.864C152.226 73.991 152.104 74.118 151.981 74.245C151.942 74.6846 151.903 75.1241 151.864 75.5637C151.741 75.6907 151.618 75.8177 151.495 75.9447C151.456 76.3843 151.417 76.8238 151.378 77.2634C151.268 77.4025 151.157 77.5417 151.046 77.6808C150.995 78.1082 150.944 78.5357 150.893 78.9631C150.782 79.1022 150.671 79.2413 150.561 79.3805C150.263 80.7292 150.02 82.0929 149.656 83.4237C148.888 86.2356 148.057 89.0303 147.251 91.8321C147.128 91.9591 147.006 92.0861 146.883 92.213C146.844 92.6526 146.805 93.0922 146.766 93.5318C146.643 93.6587 146.52 93.7857 146.397 93.9127C146.358 94.3523 146.319 94.7919 146.28 95.2314C146.157 95.3584 146.035 95.4854 145.912 95.6124C145.711 96.6185 145.51 97.6247 145.309 98.6308C145.199 98.7699 145.088 98.9091 144.978 99.0482C144.785 99.6683 144.752 100.423 144.366 100.88C143.622 101.762 142.68 102.476 141.82 103.26C141.782 103.306 141.748 103.357 141.72 103.411C141.26 103.907 140.8 104.404 140.315 104.927C140.476 105.236 140.667 105.602 140.858 105.966C140.948 106.113 141.037 106.26 141.126 106.407C141.142 106.655 141.159 106.904 141.175 107.153C141.258 107.308 141.342 107.463 141.425 107.618C141.419 107.941 141.414 108.263 141.408 108.586C141.297 108.806 141.186 109.026 141.075 109.246C141.041 110.489 141.008 111.733 140.974 112.977C141.057 113.132 141.139 113.288 141.222 113.444C142.778 114.512 143.03 116.011 142.745 117.757C142.546 118.976 142.507 120.222 142.396 121.455C142.25 121.622 142.104 121.788 141.957 121.955C141.957 122.108 141.956 122.261 141.956 122.414C142.084 122.502 142.213 122.589 142.342 122.676C142.922 124.702 144.292 126.068 146.03 127.144C146.559 127.471 147.033 127.886 147.533 128.261C147.67 128.422 147.808 128.583 147.946 128.744C147.92 128.849 147.895 128.955 147.87 129.059C147.989 129.276 148.105 129.495 148.222 129.714C148.319 130.201 148.416 130.688 148.513 131.175C148.593 131.341 148.674 131.507 148.754 131.673L148.734 131.645C148.82 132.018 148.907 132.392 148.994 132.765C149.842 134.092 150.863 135.346 151.475 136.775C151.857 137.669 152.383 138.626 152.115 139.837C151.996 140.376 152.893 141.189 152.618 142.068C152.48 142.105 152.341 142.141 152.202 142.178C152.341 142.241 152.48 142.303 152.618 142.366C152.694 142.603 152.771 142.839 152.847 143.076C152.847 143.232 152.847 143.388 152.847 143.544C152.531 143.716 152.215 143.888 151.899 144.061C151.65 144.132 151.402 144.204 151.154 144.276C151.024 144.484 150.893 144.692 150.763 144.901C151.207 146.768 151.291 146.877 153.345 146.936C154.453 146.968 154.649 147.828 155.046 148.533C155.197 148.802 155.221 149.231 155.437 149.359C156.874 150.215 157.018 151.878 156.851 153.01C156.574 154.894 157.38 156.738 156.758 158.571C156.668 158.837 156.705 159.218 156.831 159.472C157.124 160.06 156.866 160.298 156.463 160.755C154.574 162.902 152.074 164.559 151.017 167.39C150.935 167.609 150.816 167.866 150.635 167.988C148.947 169.129 148.638 171.195 147.461 172.674C147.238 172.992 147.014 173.311 146.79 173.629C146.768 173.715 146.746 173.801 146.724 173.887C146.587 174.05 146.45 174.213 146.313 174.376C144.846 176.699 143.375 179.021 141.912 181.347C140.626 183.393 139.366 185.455 138.065 187.49C136.728 189.583 135.331 191.637 134.005 193.736C132.971 195.374 132.023 197.065 131.007 198.715C129.577 201.038 128.154 203.368 126.662 205.652C125.561 207.338 124.306 208.924 123.207 210.612C121.93 212.573 120.855 214.671 119.494 216.567C118.293 218.24 116.818 219.717 115.464 221.28C110.131 221.279 104.798 221.279 99.4652 221.278C99.3047 221.627 99.0057 221.975 99.0041 222.324C98.9669 230.294 98.9622 238.264 98.9514 246.234C95.727 246.266 92.5027 246.299 89.2783 246.331C88.3861 246.329 87.4939 246.327 86.6016 246.324C81.2623 246.322 75.923 246.32 70.5837 246.318C69.612 246.316 68.6403 246.314 67.6686 246.312C63.2195 246.308 58.7704 246.305 54.3213 246.301C53.7593 246.289 53.1974 246.267 52.6353 246.266C47.6935 246.249 42.7517 246.235 37.8099 246.221C37.7434 246.154 37.6769 246.086 37.6104 246.019C37.5979 245.457 37.5765 244.896 37.5744 244.334C37.5569 239.715 37.5431 235.095 37.5281 230.476C37.5301 221.019 37.5321 211.562 37.534 202.104Z" fill="#191925"/>
</mask>
<g mask="url(#mask0_12_420)">
<g id="Mask group">
<mask id="mask1_12_420" style="mask-type:alpha" maskUnits="userSpaceOnUse" x="13" y="13" width="144" height="234">
<path id="cba shape front mobile" d="M37.534 202.104C37.4724 200.318 37.4101 198.531 37.3496 196.744C37.3275 196.09 37.3095 195.437 37.2897 194.784C37.2359 194.371 37.182 193.959 37.1281 193.547C37.1005 191.207 37.0729 188.867 37.0453 186.527C36.968 186.045 36.8906 185.564 36.8132 185.083C36.8102 183.784 36.8071 182.485 36.8041 181.186C36.7261 180.866 36.648 180.546 36.57 180.226C36.5673 178.927 36.5646 177.629 36.562 176.33C36.5086 176.08 36.4552 175.829 36.4017 175.578C36.3714 175.087 36.3411 174.596 36.3108 174.104C36.3313 172.093 36.3517 170.082 36.3722 168.07C36.454 167.913 36.5357 167.755 36.6175 167.597C36.856 167.365 37.0946 167.134 37.3331 166.902C37.3986 166.812 37.4641 166.722 37.5296 166.632C37.7748 166.469 38.02 166.306 38.2653 166.144C38.8434 166.954 39.215 166.731 39.4657 165.904C39.3944 164.627 38.9773 163.337 39.9315 162.148C40.3363 161.644 40.4964 160.943 40.7677 160.332C40.8208 160.163 40.8738 159.994 40.9269 159.825C40.9387 159.663 40.9505 159.5 40.9624 159.337C40.8875 159.249 40.8126 159.162 40.7378 159.074L40.7367 159.081C40.6546 158.989 40.5724 158.897 40.4902 158.805C41.007 156.608 42.8088 154.814 42.4617 152.323C42.3871 151.787 42.7755 151.187 42.9506 150.617C43.0056 150.125 43.0607 149.632 43.1158 149.14C44.0529 147.608 43.6148 145.799 44.1202 144.182C44.2046 143.912 44.3835 143.643 44.5883 143.445C45.3503 142.709 45.9149 141.988 45.2446 140.849C44.9191 140.296 44.82 139.61 44.6184 138.984C44.7077 138.891 44.797 138.798 44.8863 138.705C44.9485 138.62 45.0106 138.534 45.0728 138.448C45.0033 138.274 44.9338 138.101 44.8643 137.927C44.2582 137.265 43.652 136.603 43.3164 136.236C43.7021 134.671 44.0722 133.501 44.2625 132.302C44.4475 131.137 43.5213 130.548 42.4016 130.774C41.4045 130.975 40.3473 130.879 39.3166 130.914C39.2161 130.845 39.1157 130.776 39.0153 130.707C37.2374 130.667 35.4595 130.626 33.6817 130.586C33.7218 130.528 33.7162 130.476 33.6647 130.427C33.6622 129.792 33.6597 129.157 33.6573 128.521C33.5799 128.094 33.6032 127.613 33.4056 127.252C32.8985 126.326 32.4355 125.585 32.8684 124.33C33.3532 122.925 31.0817 119.568 29.6727 118.962C27.8342 118.172 25.9762 117.417 24.1901 116.521C23.3674 116.108 22.7758 115.119 21.9385 114.875C20.3158 114.401 19.2224 113.105 17.6844 112.804C16.1934 112.674 14.7002 112.561 13.2159 112.376C13.1072 112.363 12.9593 111.809 13.0104 111.541C13.1241 110.943 13.4961 110.371 13.5088 109.783C13.5615 107.357 13.5194 104.928 13.5122 102.501C13.5216 100.648 13.5311 98.7957 13.5405 96.9432C13.6135 96.6471 13.7484 96.3513 13.7496 96.0549C13.7588 93.7632 13.7422 91.4714 13.7336 89.1796C13.7374 88.3543 13.7413 87.5291 13.7451 86.7039C13.7461 84.6205 13.7471 82.5371 13.7481 80.4537C13.6927 79.174 13.5571 77.8905 13.6168 76.6161C13.6456 76.0004 14.0203 75.3928 14.2752 74.7974C14.9108 73.3129 15.6219 71.8585 16.2026 70.3533C17.0377 68.1889 17.7819 65.9895 18.5699 63.8068C18.7594 63.2819 18.9684 62.764 19.1685 62.2429C19.2244 62.0705 19.2803 61.8982 19.3361 61.7259C19.3553 61.654 19.3843 61.5863 19.4231 61.5228C19.5441 61.1873 19.6651 60.8518 19.7861 60.5163C19.8218 60.4436 19.8576 60.3709 19.8933 60.2982C19.9484 60.1268 20.0036 59.9555 20.0587 59.7842C20.0804 59.7111 20.1086 59.6405 20.1432 59.5726C20.2004 59.481 20.2575 59.3896 20.3147 59.2981C20.5792 58.4979 20.8437 57.6977 21.1082 56.8975C21.1656 56.7267 21.2231 56.556 21.2805 56.3853C21.2616 56.2889 21.2427 56.1926 21.2243 56.0967C21.3271 55.8686 21.4293 55.64 21.5316 55.4114C21.6332 55.0974 21.7348 54.7834 21.8364 54.4694C21.8939 54.2986 21.9513 54.1279 22.0088 53.9571C22.0356 53.8063 22.0623 53.6555 22.0891 53.5046C22.1376 53.3325 22.1862 53.1605 22.2347 52.9885C22.9924 50.4884 23.75 47.9884 24.5076 45.4883C24.564 45.3161 24.6204 45.144 24.6767 44.9719C24.7844 44.6583 24.8921 44.3447 24.9997 44.0311C25.0564 43.8591 25.1131 43.6873 25.1698 43.5154C25.437 42.5548 25.7041 41.5943 25.9712 40.6337C26.0275 40.4609 26.0838 40.2881 26.1402 40.1153C26.2437 39.8013 26.3473 39.4872 26.4508 39.1731C26.6115 39.007 26.7722 38.8409 26.9329 38.6749C29.1025 38.1744 31.2721 37.6739 33.4418 37.1734C33.8781 37.0759 34.3144 36.9784 34.7506 36.8809C35.3689 36.7549 35.9872 36.629 36.6055 36.5029C36.7757 36.3349 36.9459 36.167 37.1161 35.9991C37.2693 35.9031 37.4225 35.807 37.5756 35.711C37.6675 35.6451 37.7595 35.5791 37.8515 35.5131C38.7308 34.7148 39.61 33.9165 40.4893 33.1182C40.6645 33.0285 40.8397 32.9389 41.015 32.8493C41.8917 32.0486 42.7684 31.248 43.6451 30.4472C43.8203 30.3575 43.9955 30.2679 44.1708 30.1783C44.3898 29.929 44.6088 29.6796 44.8279 29.4302C44.7471 29.2708 44.6663 29.1114 44.5855 28.9521C44.581 28.7065 44.5765 28.4609 44.572 28.2152C44.4962 27.9752 44.4203 27.7351 44.3444 27.495C44.3397 27.2472 44.335 26.9993 44.3304 26.7515C44.2644 26.6595 44.1984 26.5675 44.1324 26.4755C43.8299 24.4582 43.5273 22.4409 43.2245 20.4238C43.2273 20.2785 43.2304 20.1331 43.2335 19.9876C43.1954 19.8974 43.1573 19.8072 43.1192 19.717C43.0421 19.4769 42.965 19.2367 42.8879 18.9966C42.8832 18.7488 42.8785 18.5009 42.8738 18.2531C42.8079 18.1611 42.7419 18.0691 42.6759 17.9771C42.6494 17.4812 42.6229 16.9853 42.5921 16.4086C43.0682 16.4522 43.4743 16.4894 43.8804 16.5267C44.2039 16.377 44.5274 16.2272 44.8509 16.0775C47.6831 15.661 50.5154 15.2446 53.3476 14.8281C53.5179 14.7761 53.6882 14.7241 53.8585 14.672C54.2547 14.6431 54.6509 14.6142 55.0472 14.5854C55.4571 14.5183 55.867 14.4512 56.2769 14.3842C56.4334 14.3703 56.5899 14.3564 56.7465 14.3426C57.1584 14.2763 57.5703 14.21 57.9823 14.1438C58.7033 14.0481 59.4242 13.9525 60.1452 13.857C60.6285 13.7872 61.1118 13.7173 61.5951 13.6474C63.4468 13.3151 65.2671 12.6125 67.1962 13.2736C67.638 13.425 68.1416 13.396 68.6169 13.45C68.7855 13.5046 68.9542 13.5593 69.1228 13.614C69.4494 13.6186 69.7759 13.6231 70.1024 13.6277C70.3423 13.7041 70.5821 13.7805 70.822 13.8569C71.1482 13.8625 71.4744 13.8681 71.8006 13.8737C72.0408 13.9491 72.281 14.0244 72.5213 14.0997C73.2582 14.2475 73.9951 14.3953 74.7318 14.5433C75.2086 14.5575 75.6854 14.5714 76.1622 14.5854C77.9133 14.7684 78.1964 15.1067 78.7432 17.7178C79.9992 17.8123 81.2099 18.0745 81.8797 16.4127C82.2933 15.3868 83.4511 15.8904 84.2792 15.9144C84.5146 15.9213 84.7331 16.5056 84.9593 16.825C84.8525 16.9759 84.7458 17.1268 84.639 17.2778L84.6476 17.2697C84.6481 17.3701 84.6485 17.4705 84.649 17.5708C84.6508 17.6406 84.661 17.7092 84.6797 17.7766C84.829 17.9574 84.9784 18.1382 85.1278 18.319C85.8582 18.6966 86.5886 19.0741 87.319 19.4517C87.4814 19.533 87.6438 19.6143 87.8062 19.6956C87.9769 19.627 88.1477 19.5583 88.3185 19.4896C89.2053 19.3169 90.0921 19.1441 90.9788 18.9714C91.2185 19.0466 91.4582 19.1218 91.6979 19.197C91.9437 19.2028 92.1895 19.2085 92.4354 19.2142C92.675 19.2894 92.9147 19.3646 93.1544 19.4398C93.8001 19.4532 94.4458 19.4666 95.0916 19.4799C95.0305 19.6147 94.9693 19.7496 94.9082 19.8845C95.2061 19.8964 95.504 19.9083 95.802 19.9202C95.8982 20.0215 95.9945 20.1228 96.0906 20.224C96.069 20.3033 96.073 20.3815 96.1026 20.4584L96.036 21.1799C96.1375 21.4217 96.2391 21.6634 96.3406 21.9051C96.5621 22.0731 96.7837 22.2411 97.0053 22.4091C97.0266 22.9713 97.048 23.5336 97.0692 24.0958C97.1383 24.1635 97.2075 24.2312 97.2766 24.2989C98.9927 24.323 100.709 24.3472 102.425 24.3713C103.056 24.4339 103.687 24.4964 104.318 24.5589L104.266 24.6207L104.319 24.6815C104.495 24.6574 104.672 24.6338 104.849 24.6102C105.091 24.6099 105.333 24.6097 105.575 24.6094C106.039 24.6705 106.503 24.7316 106.966 24.7926C107.024 24.8508 107.093 24.87 107.173 24.8502C107.451 24.8462 107.729 24.8424 108.006 24.8386C108.245 24.8344 108.484 24.8301 108.723 24.8258C109.117 24.8986 109.511 24.9713 109.906 25.0441C110.151 25.1096 110.396 25.175 110.641 25.2406C111.122 25.2712 111.603 25.3016 112.084 25.3321C112.333 25.4068 112.581 25.4815 112.83 25.5561C112.912 25.4997 112.994 25.4432 113.076 25.3867L113.061 25.3059C113.374 25.2929 113.686 25.2798 113.999 25.2668C115.87 25.5261 117.742 25.7854 119.613 26.0447C119.614 26.1228 119.616 26.2009 119.618 26.279C119.518 26.5198 119.417 26.7606 119.317 27.0014C119.208 27.0829 119.099 27.1644 118.99 27.246C119.099 27.3276 119.208 27.4093 119.317 27.4909C119.372 27.733 119.344 28.0705 119.495 28.2018C120.444 29.0274 120.59 30.1676 120.856 31.2896C120.978 31.804 121.32 32.274 121.601 32.7407C121.866 33.1795 122.181 33.5875 122.474 34.0091C122.568 34.2012 122.662 34.3934 122.756 34.5855C122.83 34.8043 122.905 35.0231 122.98 35.2419C123.154 35.4065 123.329 35.571 123.503 35.7356C124.232 35.6484 124.96 35.5612 125.689 35.474C126.011 35.4724 126.333 35.4707 126.655 35.469C126.869 35.5538 127.083 35.6385 127.295 35.7222C127.389 35.7343 127.484 35.7473 127.579 35.7603C129.232 35.7804 128.79 36.9821 128.802 37.9281C128.699 38.0733 128.597 38.2185 128.495 38.3638C128.487 38.4612 128.48 38.5586 128.473 38.656C128.349 38.8833 128.223 39.1106 128.098 39.3378C128.242 39.9756 127.51 40.7237 128.342 41.275C128.199 41.4513 128.055 41.6276 127.912 41.8039C127.908 42.4578 127.905 43.1118 127.901 43.7657C127.969 43.8561 128.037 43.9466 128.105 44.037C128.101 44.0977 128.079 44.1507 128.038 44.1962C128.137 44.393 128.236 44.5898 128.335 44.7866C128.349 44.8517 128.365 44.916 128.385 44.9795C128.451 45.0766 128.518 45.1736 128.584 45.2707C128.734 45.4182 128.885 45.5657 129.036 45.7132C129.131 45.7814 129.226 45.8496 129.321 45.9177C130.465 47.7243 132.31 47.0654 133.922 47.2268C134.096 47.2305 134.271 47.2347 134.445 47.2388C134.533 47.2222 134.621 47.2056 134.709 47.1887C134.773 47.1931 134.836 47.1847 134.896 47.1632C137.057 47.2383 139.221 47.2767 141.378 47.4152C141.9 47.4487 142.401 47.8125 142.913 48.0245L142.904 47.9992C142.99 48.3299 143.077 48.6606 143.163 48.9913C143.127 49.0427 143.123 49.0965 143.151 49.1526C143.158 49.2185 143.164 49.2846 143.169 49.3508L143.388 49.6065L143.384 49.5946C143.468 49.6945 143.552 49.7942 143.636 49.894C143.621 50.021 143.606 50.1481 143.591 50.2752C143.686 50.4658 143.782 50.6564 143.878 50.8469C143.88 50.9077 143.878 50.9682 143.872 51.0287C143.955 51.211 144.038 51.3933 144.121 51.5756C144.117 51.6331 144.108 51.6899 144.095 51.746C144.182 52.0167 144.269 52.2873 144.357 52.5579C144.355 52.61 144.341 52.6588 144.315 52.7042C144.411 52.897 144.506 53.0896 144.602 53.2823C144.618 53.5095 144.635 53.7366 144.651 53.9637C144.72 54.0516 144.788 54.1395 144.857 54.2274C145.029 54.4624 145.2 54.6975 145.372 54.9325C145.44 55.0206 145.509 55.1087 145.577 55.1969L145.568 55.1808C145.653 55.2748 145.738 55.3687 145.822 55.4626C146.549 56.2759 147.277 57.0892 148.004 57.9021C148.158 58.0469 148.313 58.1921 148.468 58.3373C148.878 58.3452 149.289 58.353 149.7 58.3609C149.776 58.4363 149.853 58.5117 149.929 58.5872C149.95 58.6636 149.968 58.7406 149.983 58.8183C149.962 59.0666 149.94 59.3149 149.919 59.5632C149.911 59.7896 149.903 60.0159 149.895 60.2424C149.847 60.366 149.799 60.4895 149.75 60.6131C149.982 60.6492 150.213 60.6853 150.445 60.7214C150.537 60.759 150.63 60.7966 150.723 60.8338C150.784 60.8288 150.846 60.8244 150.908 60.82C151.919 60.9734 152.929 61.1268 153.939 61.28C154.232 61.4203 154.524 61.5608 154.816 61.7014C154.893 62.0349 154.97 62.3684 155.047 62.7019C155.047 63.0172 155.048 63.3324 155.048 63.6477C155.048 63.884 155.047 64.1203 155.047 64.3566C154.953 64.5424 154.859 64.7281 154.764 64.9139C154.706 65.0666 154.648 65.2193 154.59 65.372C154.566 65.5438 154.541 65.7156 154.517 65.8873C154.461 66.0395 154.405 66.1917 154.349 66.3439C154.326 66.5145 154.302 66.685 154.279 66.8556C153.797 68.6252 153.316 70.3948 152.835 72.1644C152.712 72.2913 152.589 72.4183 152.466 72.5453C152.427 72.9849 152.388 73.4245 152.349 73.864C152.226 73.991 152.104 74.118 151.981 74.245C151.942 74.6846 151.903 75.1241 151.864 75.5637C151.741 75.6907 151.618 75.8177 151.495 75.9447C151.456 76.3843 151.417 76.8238 151.378 77.2634C151.268 77.4025 151.157 77.5417 151.046 77.6808C150.995 78.1082 150.944 78.5357 150.893 78.9631C150.782 79.1022 150.671 79.2413 150.561 79.3805C150.263 80.7292 150.02 82.0929 149.656 83.4237C148.888 86.2356 148.057 89.0303 147.251 91.8321C147.128 91.9591 147.006 92.0861 146.883 92.213C146.844 92.6526 146.805 93.0922 146.766 93.5318C146.643 93.6587 146.52 93.7857 146.397 93.9127C146.358 94.3523 146.319 94.7919 146.28 95.2314C146.157 95.3584 146.035 95.4854 145.912 95.6124C145.711 96.6185 145.51 97.6247 145.309 98.6308C145.199 98.7699 145.088 98.9091 144.978 99.0482C144.785 99.6683 144.752 100.423 144.366 100.88C143.622 101.762 142.68 102.476 141.82 103.26C141.782 103.306 141.748 103.357 141.72 103.411C141.26 103.907 140.8 104.404 140.315 104.927C140.476 105.236 140.667 105.602 140.858 105.966C140.948 106.113 141.037 106.26 141.126 106.407C141.142 106.655 141.159 106.904 141.175 107.153C141.258 107.308 141.342 107.463 141.425 107.618C141.419 107.941 141.414 108.263 141.408 108.586C141.297 108.806 141.186 109.026 141.075 109.246C141.041 110.489 141.008 111.733 140.974 112.977C141.057 113.132 141.139 113.288 141.222 113.444C142.778 114.512 143.03 116.011 142.745 117.757C142.546 118.976 142.507 120.222 142.396 121.455C142.25 121.622 142.104 121.788 141.957 121.955C141.957 122.108 141.956 122.261 141.956 122.414C142.084 122.502 142.213 122.589 142.342 122.676C142.922 124.702 144.292 126.068 146.03 127.144C146.559 127.471 147.033 127.886 147.533 128.261C147.67 128.422 147.808 128.583 147.946 128.744C147.92 128.849 147.895 128.955 147.87 129.059C147.989 129.276 148.105 129.495 148.222 129.714C148.319 130.201 148.416 130.688 148.513 131.175C148.593 131.341 148.674 131.507 148.754 131.673L148.734 131.645C148.82 132.018 148.907 132.392 148.994 132.765C149.842 134.092 150.863 135.346 151.475 136.775C151.857 137.669 152.383 138.626 152.115 139.837C151.996 140.376 152.893 141.189 152.618 142.068C152.48 142.105 152.341 142.141 152.202 142.178C152.341 142.241 152.48 142.303 152.618 142.366C152.694 142.603 152.771 142.839 152.847 143.076C152.847 143.232 152.847 143.388 152.847 143.544C152.531 143.716 152.215 143.888 151.899 144.061C151.65 144.132 151.402 144.204 151.154 144.276C151.024 144.484 150.893 144.692 150.763 144.901C151.207 146.768 151.291 146.877 153.345 146.936C154.453 146.968 154.649 147.828 155.046 148.533C155.197 148.802 155.221 149.231 155.437 149.359C156.874 150.215 157.018 151.878 156.851 153.01C156.574 154.894 157.38 156.738 156.758 158.571C156.668 158.837 156.705 159.218 156.831 159.472C157.124 160.06 156.866 160.298 156.463 160.755C154.574 162.902 152.074 164.559 151.017 167.39C150.935 167.609 150.816 167.866 150.635 167.988C148.947 169.129 148.638 171.195 147.461 172.674C147.238 172.992 147.014 173.311 146.79 173.629C146.768 173.715 146.746 173.801 146.724 173.887C146.587 174.05 146.45 174.213 146.313 174.376C144.846 176.699 143.375 179.021 141.912 181.347C140.626 183.393 139.366 185.455 138.065 187.49C136.728 189.583 135.331 191.637 134.005 193.736C132.971 195.374 132.023 197.065 131.007 198.715C129.577 201.038 128.154 203.368 126.662 205.652C125.561 207.338 124.306 208.924 123.207 210.612C121.93 212.573 120.855 214.671 119.494 216.567C118.293 218.24 116.818 219.717 115.464 221.28C110.131 221.279 104.798 221.279 99.4652 221.278C99.3047 221.627 99.0057 221.975 99.0041 222.324C98.9669 230.294 98.9622 238.264 98.9514 246.234C95.727 246.266 92.5027 246.299 89.2783 246.331C88.3861 246.329 87.4939 246.327 86.6016 246.324C81.2623 246.322 75.923 246.32 70.5837 246.318C69.612 246.316 68.6403 246.314 67.6686 246.312C63.2195 246.308 58.7704 246.305 54.3213 246.301C53.7593 246.289 53.1974 246.267 52.6353 246.266C47.6935 246.249 42.7517 246.235 37.8099 246.221C37.7434 246.154 37.6769 246.086 37.6104 246.019C37.5979 245.457 37.5765 244.896 37.5744 244.334C37.5569 239.715 37.5431 235.095 37.5281 230.476C37.5301 221.019 37.5321 211.562 37.534 202.104Z" fill="#191925"/>
</mask>
<g mask="url(#mask1_12_420)">
<g id="cba bg mobile" filter="url(#filter1_i_12_420)">
<path d="M37.534 202.104C37.4724 200.318 37.4101 198.531 37.3496 196.744C37.3275 196.09 37.3095 195.437 37.2897 194.784C37.2359 194.371 37.182 193.959 37.1281 193.547C37.1005 191.207 37.0729 188.867 37.0453 186.527C36.968 186.045 36.8906 185.564 36.8132 185.083C36.8102 183.784 36.8071 182.485 36.8041 181.186C36.7261 180.866 36.648 180.546 36.57 180.226C36.5673 178.927 36.5646 177.629 36.562 176.33C36.5086 176.08 36.4552 175.829 36.4017 175.578C36.3714 175.087 36.3411 174.596 36.3108 174.104C36.3313 172.093 36.3517 170.082 36.3722 168.07C36.454 167.913 36.5357 167.755 36.6175 167.597C36.856 167.365 37.0946 167.134 37.3331 166.902C37.3986 166.812 37.4641 166.722 37.5296 166.632C37.7748 166.469 38.02 166.306 38.2653 166.144C38.8434 166.954 39.215 166.731 39.4657 165.904C39.3944 164.627 38.9773 163.337 39.9315 162.148C40.3363 161.644 40.4964 160.943 40.7677 160.332C40.8208 160.163 40.8738 159.994 40.9269 159.825C40.9387 159.663 40.9505 159.5 40.9624 159.337C40.8875 159.249 40.8126 159.162 40.7378 159.074L40.7367 159.081C40.6546 158.989 40.5724 158.897 40.4902 158.805C41.007 156.608 42.8088 154.814 42.4617 152.323C42.3871 151.787 42.7755 151.187 42.9506 150.617C43.0056 150.125 43.0607 149.632 43.1158 149.14C44.0529 147.608 43.6148 145.799 44.1202 144.182C44.2046 143.912 44.3835 143.643 44.5883 143.445C45.3503 142.709 45.9149 141.988 45.2446 140.849C44.9191 140.296 44.82 139.61 44.6184 138.984C44.7077 138.891 44.797 138.798 44.8863 138.705C44.9485 138.62 45.0106 138.534 45.0728 138.448C45.0033 138.274 44.9338 138.101 44.8643 137.927C44.2582 137.265 43.652 136.603 43.3164 136.236C43.7021 134.671 44.0722 133.501 44.2625 132.302C44.4475 131.137 43.5213 130.548 42.4016 130.774C41.4045 130.975 40.3473 130.879 39.3166 130.914C39.2161 130.845 39.1157 130.776 39.0153 130.707C37.2374 130.667 35.4595 130.626 33.6817 130.586C33.7218 130.528 33.7162 130.476 33.6647 130.427C33.6622 129.792 33.6597 129.157 33.6573 128.521C33.5799 128.094 33.6032 127.613 33.4056 127.252C32.8985 126.326 32.4355 125.585 32.8684 124.33C33.3532 122.925 31.0817 119.568 29.6727 118.962C27.8342 118.172 25.9762 117.417 24.1901 116.521C23.3674 116.108 22.7758 115.119 21.9385 114.875C20.3158 114.401 19.2224 113.105 17.6844 112.804C16.1934 112.674 14.7002 112.561 13.2159 112.376C13.1072 112.363 12.9593 111.809 13.0104 111.541C13.1241 110.943 13.4961 110.371 13.5088 109.783C13.5615 107.357 13.5194 104.928 13.5122 102.501C13.5216 100.648 13.5311 98.7957 13.5405 96.9432C13.6135 96.6471 13.7484 96.3513 13.7496 96.0549C13.7588 93.7632 13.7422 91.4714 13.7336 89.1796C13.7374 88.3543 13.7413 87.5291 13.7451 86.7039C13.7461 84.6205 13.7471 82.5371 13.7481 80.4537C13.6927 79.174 13.5571 77.8905 13.6168 76.6161C13.6456 76.0004 14.0203 75.3928 14.2752 74.7974C14.9108 73.3129 15.6219 71.8585 16.2026 70.3533C17.0377 68.1889 17.7819 65.9895 18.5699 63.8068C18.7594 63.2819 18.9684 62.764 19.1685 62.2429C19.2244 62.0705 19.2803 61.8982 19.3361 61.7259C19.3553 61.654 19.3843 61.5863 19.4231 61.5228C19.5441 61.1873 19.6651 60.8518 19.7861 60.5163C19.8218 60.4436 19.8576 60.3709 19.8933 60.2982C19.9484 60.1268 20.0036 59.9555 20.0587 59.7842C20.0804 59.7111 20.1086 59.6405 20.1432 59.5726C20.2004 59.481 20.2575 59.3896 20.3147 59.2981C20.5792 58.4979 20.8437 57.6977 21.1082 56.8975C21.1656 56.7267 21.2231 56.556 21.2805 56.3853C21.2616 56.2889 21.2427 56.1926 21.2243 56.0967C21.3271 55.8686 21.4293 55.64 21.5316 55.4114C21.6332 55.0974 21.7348 54.7834 21.8364 54.4694C21.8939 54.2986 21.9513 54.1279 22.0088 53.9571C22.0356 53.8063 22.0623 53.6555 22.0891 53.5046C22.1376 53.3325 22.1862 53.1605 22.2347 52.9885C22.9924 50.4884 23.75 47.9884 24.5076 45.4883C24.564 45.3161 24.6204 45.144 24.6767 44.9719C24.7844 44.6583 24.8921 44.3447 24.9997 44.0311C25.0564 43.8591 25.1131 43.6873 25.1698 43.5154C25.437 42.5548 25.7041 41.5943 25.9712 40.6337C26.0275 40.4609 26.0838 40.2881 26.1402 40.1153C26.2437 39.8013 26.3473 39.4872 26.4508 39.1731C26.6115 39.007 26.7722 38.8409 26.9329 38.6749C29.1025 38.1744 31.2721 37.6739 33.4418 37.1734C33.8781 37.0759 34.3144 36.9784 34.7506 36.8809C35.3689 36.7549 35.9872 36.629 36.6055 36.5029C36.7757 36.3349 36.9459 36.167 37.1161 35.9991C37.2693 35.9031 37.4225 35.807 37.5756 35.711C37.6675 35.6451 37.7595 35.5791 37.8515 35.5131C38.7308 34.7148 39.61 33.9165 40.4893 33.1182C40.6645 33.0285 40.8397 32.9389 41.015 32.8493C41.8917 32.0486 42.7684 31.248 43.6451 30.4472C43.8203 30.3575 43.9955 30.2679 44.1708 30.1783C44.3898 29.929 44.6088 29.6796 44.8279 29.4302C44.7471 29.2708 44.6663 29.1114 44.5855 28.9521C44.581 28.7065 44.5765 28.4609 44.572 28.2152C44.4962 27.9752 44.4203 27.7351 44.3444 27.495C44.3397 27.2472 44.335 26.9993 44.3304 26.7515C44.2644 26.6595 44.1984 26.5675 44.1324 26.4755C43.8299 24.4582 43.5273 22.4409 43.2245 20.4238C43.2273 20.2785 43.2304 20.1331 43.2335 19.9876C43.1954 19.8974 43.1573 19.8072 43.1192 19.717C43.0421 19.4769 42.965 19.2367 42.8879 18.9966C42.8832 18.7488 42.8785 18.5009 42.8738 18.2531C42.8079 18.1611 42.7419 18.0691 42.6759 17.9771C42.6494 17.4812 42.6229 16.9853 42.5921 16.4086C43.0682 16.4522 43.4743 16.4894 43.8804 16.5267C44.2039 16.377 44.5274 16.2272 44.8509 16.0775C47.6831 15.661 50.5154 15.2446 53.3476 14.8281C53.5179 14.7761 53.6882 14.7241 53.8585 14.672C54.2547 14.6431 54.6509 14.6142 55.0472 14.5854C55.4571 14.5183 55.867 14.4512 56.2769 14.3842C56.4334 14.3703 56.5899 14.3564 56.7465 14.3426C57.1584 14.2763 57.5703 14.21 57.9823 14.1438C58.7033 14.0481 59.4242 13.9525 60.1452 13.857C60.6285 13.7872 61.1118 13.7173 61.5951 13.6474C63.4468 13.3151 65.2671 12.6125 67.1962 13.2736C67.638 13.425 68.1416 13.396 68.6169 13.45C68.7855 13.5046 68.9542 13.5593 69.1228 13.614C69.4494 13.6186 69.7759 13.6231 70.1024 13.6277C70.3423 13.7041 70.5821 13.7805 70.822 13.8569C71.1482 13.8625 71.4744 13.8681 71.8006 13.8737C72.0408 13.9491 72.281 14.0244 72.5213 14.0997C73.2582 14.2475 73.9951 14.3953 74.7318 14.5433C75.2086 14.5575 75.6854 14.5714 76.1622 14.5854C77.9133 14.7684 78.1964 15.1067 78.7432 17.7178C79.9992 17.8123 81.2099 18.0745 81.8797 16.4127C82.2933 15.3868 83.4511 15.8904 84.2792 15.9144C84.5146 15.9213 84.7331 16.5056 84.9593 16.825C84.8525 16.9759 84.7458 17.1268 84.639 17.2778L84.6476 17.2697C84.6481 17.3701 84.6485 17.4705 84.649 17.5708C84.6508 17.6406 84.661 17.7092 84.6797 17.7766C84.829 17.9574 84.9784 18.1382 85.1278 18.319C85.8582 18.6966 86.5886 19.0741 87.319 19.4517C87.4814 19.533 87.6438 19.6143 87.8062 19.6956C87.9769 19.627 88.1477 19.5583 88.3185 19.4896C89.2053 19.3169 90.0921 19.1441 90.9788 18.9714C91.2185 19.0466 91.4582 19.1218 91.6979 19.197C91.9437 19.2028 92.1895 19.2085 92.4354 19.2142C92.675 19.2894 92.9147 19.3646 93.1544 19.4398C93.8001 19.4532 94.4458 19.4666 95.0916 19.4799C95.0305 19.6147 94.9693 19.7496 94.9082 19.8845C95.2061 19.8964 95.504 19.9083 95.802 19.9202C95.8982 20.0215 95.9945 20.1228 96.0906 20.224C96.069 20.3033 96.073 20.3815 96.1026 20.4584L96.036 21.1799C96.1375 21.4217 96.2391 21.6634 96.3406 21.9051C96.5621 22.0731 96.7837 22.2411 97.0053 22.4091C97.0266 22.9713 97.048 23.5336 97.0692 24.0958C97.1383 24.1635 97.2075 24.2312 97.2766 24.2989C98.9927 24.323 100.709 24.3472 102.425 24.3713C103.056 24.4339 103.687 24.4964 104.318 24.5589L104.266 24.6207L104.319 24.6815C104.495 24.6574 104.672 24.6338 104.849 24.6102C105.091 24.6099 105.333 24.6097 105.575 24.6094C106.039 24.6705 106.503 24.7316 106.966 24.7926C107.024 24.8508 107.093 24.87 107.173 24.8502C107.451 24.8462 107.729 24.8424 108.006 24.8386C108.245 24.8344 108.484 24.8301 108.723 24.8258C109.117 24.8986 109.511 24.9713 109.906 25.0441C110.151 25.1096 110.396 25.175 110.641 25.2406C111.122 25.2712 111.603 25.3016 112.084 25.3321C112.333 25.4068 112.581 25.4815 112.83 25.5561C112.912 25.4997 112.994 25.4432 113.076 25.3867L113.061 25.3059C113.374 25.2929 113.686 25.2798 113.999 25.2668C115.87 25.5261 117.742 25.7854 119.613 26.0447C119.614 26.1228 119.616 26.2009 119.618 26.279C119.518 26.5198 119.417 26.7606 119.317 27.0014C119.208 27.0829 119.099 27.1644 118.99 27.246C119.099 27.3276 119.208 27.4093 119.317 27.4909C119.372 27.733 119.344 28.0705 119.495 28.2018C120.444 29.0274 120.59 30.1676 120.856 31.2896C120.978 31.804 121.32 32.274 121.601 32.7407C121.866 33.1795 122.181 33.5875 122.474 34.0091C122.568 34.2012 122.662 34.3934 122.756 34.5855C122.83 34.8043 122.905 35.0231 122.98 35.2419C123.154 35.4065 123.329 35.571 123.503 35.7356C124.232 35.6484 124.96 35.5612 125.689 35.474C126.011 35.4724 126.333 35.4707 126.655 35.469C126.869 35.5538 127.083 35.6385 127.295 35.7222C127.389 35.7343 127.484 35.7473 127.579 35.7603C129.232 35.7804 128.79 36.9821 128.802 37.9281C128.699 38.0733 128.597 38.2185 128.495 38.3638C128.487 38.4612 128.48 38.5586 128.473 38.656C128.349 38.8833 128.223 39.1106 128.098 39.3378C128.242 39.9756 127.51 40.7237 128.342 41.275C128.199 41.4513 128.055 41.6276 127.912 41.8039C127.908 42.4578 127.905 43.1118 127.901 43.7657C127.969 43.8561 128.037 43.9466 128.105 44.037C128.101 44.0977 128.079 44.1507 128.038 44.1962C128.137 44.393 128.236 44.5898 128.335 44.7866C128.349 44.8517 128.365 44.916 128.385 44.9795C128.451 45.0766 128.518 45.1736 128.584 45.2707C128.734 45.4182 128.885 45.5657 129.036 45.7132C129.131 45.7814 129.226 45.8496 129.321 45.9177C130.465 47.7243 132.31 47.0654 133.922 47.2268C134.096 47.2305 134.271 47.2347 134.445 47.2388C134.533 47.2222 134.621 47.2056 134.709 47.1887C134.773 47.1931 134.836 47.1847 134.896 47.1632C137.057 47.2383 139.221 47.2767 141.378 47.4152C141.9 47.4487 142.401 47.8125 142.913 48.0245L142.904 47.9992C142.99 48.3299 143.077 48.6606 143.163 48.9913C143.127 49.0427 143.123 49.0965 143.151 49.1526C143.158 49.2185 143.164 49.2846 143.169 49.3508L143.388 49.6065L143.384 49.5946C143.468 49.6945 143.552 49.7942 143.636 49.894C143.621 50.021 143.606 50.1481 143.591 50.2752C143.686 50.4658 143.782 50.6564 143.878 50.8469C143.88 50.9077 143.878 50.9682 143.872 51.0287C143.955 51.211 144.038 51.3933 144.121 51.5756C144.117 51.6331 144.108 51.6899 144.095 51.746C144.182 52.0167 144.269 52.2873 144.357 52.5579C144.355 52.61 144.341 52.6588 144.315 52.7042C144.411 52.897 144.506 53.0896 144.602 53.2823C144.618 53.5095 144.635 53.7366 144.651 53.9637C144.72 54.0516 144.788 54.1395 144.857 54.2274C145.029 54.4624 145.2 54.6975 145.372 54.9325C145.44 55.0206 145.509 55.1087 145.577 55.1969L145.568 55.1808C145.653 55.2748 145.738 55.3687 145.822 55.4626C146.549 56.2759 147.277 57.0892 148.004 57.9021C148.158 58.0469 148.313 58.1921 148.468 58.3373C148.878 58.3452 149.289 58.353 149.7 58.3609C149.776 58.4363 149.853 58.5117 149.929 58.5872C149.95 58.6636 149.968 58.7406 149.983 58.8183C149.962 59.0666 149.94 59.3149 149.919 59.5632C149.911 59.7896 149.903 60.0159 149.895 60.2424C149.847 60.366 149.799 60.4895 149.75 60.6131C149.982 60.6492 150.213 60.6853 150.445 60.7214C150.537 60.759 150.63 60.7966 150.723 60.8338C150.784 60.8288 150.846 60.8244 150.908 60.82C151.919 60.9734 152.929 61.1268 153.939 61.28C154.232 61.4203 154.524 61.5608 154.816 61.7014C154.893 62.0349 154.97 62.3684 155.047 62.7019C155.047 63.0172 155.048 63.3324 155.048 63.6477C155.048 63.884 155.047 64.1203 155.047 64.3566C154.953 64.5424 154.859 64.7281 154.764 64.9139C154.706 65.0666 154.648 65.2193 154.59 65.372C154.566 65.5438 154.541 65.7156 154.517 65.8873C154.461 66.0395 154.405 66.1917 154.349 66.3439C154.326 66.5145 154.302 66.685 154.279 66.8556C153.797 68.6252 153.316 70.3948 152.835 72.1644C152.712 72.2913 152.589 72.4183 152.466 72.5453C152.427 72.9849 152.388 73.4245 152.349 73.864C152.226 73.991 152.104 74.118 151.981 74.245C151.942 74.6846 151.903 75.1241 151.864 75.5637C151.741 75.6907 151.618 75.8177 151.495 75.9447C151.456 76.3843 151.417 76.8238 151.378 77.2634C151.268 77.4025 151.157 77.5417 151.046 77.6808C150.995 78.1082 150.944 78.5357 150.893 78.9631C150.782 79.1022 150.671 79.2413 150.561 79.3805C150.263 80.7292 150.02 82.0929 149.656 83.4237C148.888 86.2356 148.057 89.0303 147.251 91.8321C147.128 91.9591 147.006 92.0861 146.883 92.213C146.844 92.6526 146.805 93.0922 146.766 93.5318C146.643 93.6587 146.52 93.7857 146.397 93.9127C146.358 94.3523 146.319 94.7919 146.28 95.2314C146.157 95.3584 146.035 95.4854 145.912 95.6124C145.711 96.6185 145.51 97.6247 145.309 98.6308C145.199 98.7699 145.088 98.9091 144.978 99.0482C144.785 99.6683 144.752 100.423 144.366 100.88C143.622 101.762 142.68 102.476 141.82 103.26C141.782 103.306 141.748 103.357 141.72 103.411C141.26 103.907 140.8 104.404 140.315 104.927C140.476 105.236 140.667 105.602 140.858 105.966C140.948 106.113 141.037 106.26 141.126 106.407C141.142 106.655 141.159 106.904 141.175 107.153C141.258 107.308 141.342 107.463 141.425 107.618C141.419 107.941 141.414 108.263 141.408 108.586C141.297 108.806 141.186 109.026 141.075 109.246C141.041 110.489 141.008 111.733 140.974 112.977C141.057 113.132 141.139 113.288 141.222 113.444C142.778 114.512 143.03 116.011 142.745 117.757C142.546 118.976 142.507 120.222 142.396 121.455C142.25 121.622 142.104 121.788 141.957 121.955C141.957 122.108 141.956 122.261 141.956 122.414C142.084 122.502 142.213 122.589 142.342 122.676C142.922 124.702 144.292 126.068 146.03 127.144C146.559 127.471 147.033 127.886 147.533 128.261C147.67 128.422 147.808 128.583 147.946 128.744C147.92 128.849 147.895 128.955 147.87 129.059C147.989 129.276 148.105 129.495 148.222 129.714C148.319 130.201 148.416 130.688 148.513 131.175C148.593 131.341 148.674 131.507 148.754 131.673L148.734 131.645C148.82 132.018 148.907 132.392 148.994 132.765C149.842 134.092 150.863 135.346 151.475 136.775C151.857 137.669 152.383 138.626 152.115 139.837C151.996 140.376 152.893 141.189 152.618 142.068C152.48 142.105 152.341 142.141 152.202 142.178C152.341 142.241 152.48 142.303 152.618 142.366C152.694 142.603 152.771 142.839 152.847 143.076C152.847 143.232 152.847 143.388 152.847 143.544C152.531 143.716 152.215 143.888 151.899 144.061C151.65 144.132 151.402 144.204 151.154 144.276C151.024 144.484 150.893 144.692 150.763 144.901C151.207 146.768 151.291 146.877 153.345 146.936C154.453 146.968 154.649 147.828 155.046 148.533C155.197 148.802 155.221 149.231 155.437 149.359C156.874 150.215 157.018 151.878 156.851 153.01C156.574 154.894 157.38 156.738 156.758 158.571C156.668 158.837 156.705 159.218 156.831 159.472C157.124 160.06 156.866 160.298 156.463 160.755C154.574 162.902 152.074 164.559 151.017 167.39C150.935 167.609 150.816 167.866 150.635 167.988C148.947 169.129 148.638 171.195 147.461 172.674C147.238 172.992 147.014 173.311 146.79 173.629C146.768 173.715 146.746 173.801 146.724 173.887C146.587 174.05 146.45 174.213 146.313 174.376C144.846 176.699 143.375 179.021 141.912 181.347C140.626 183.393 139.366 185.455 138.065 187.49C136.728 189.583 135.331 191.637 134.005 193.736C132.971 195.374 132.023 197.065 131.007 198.715C129.577 201.038 128.154 203.368 126.662 205.652C125.561 207.338 124.306 208.924 123.207 210.612C121.93 212.573 120.855 214.671 119.494 216.567C118.293 218.24 116.818 219.717 115.464 221.28C110.131 221.279 104.798 221.279 99.4652 221.278C99.3047 221.627 99.0057 221.975 99.0041 222.324C98.9669 230.294 98.9622 238.264 98.9514 246.234C95.727 246.266 92.5027 246.299 89.2783 246.331C88.3861 246.329 87.4939 246.327 86.6016 246.324C81.2623 246.322 75.923 246.32 70.5837 246.318C69.612 246.316 68.6403 246.314 67.6686 246.312C63.2195 246.308 58.7704 246.305 54.3213 246.301C53.7593 246.289 53.1974 246.267 52.6353 246.266C47.6935 246.249 42.7517 246.235 37.8099 246.221C37.7434 246.154 37.6769 246.086 37.6104 246.019C37.5979 245.457 37.5765 244.896 37.5744 244.334C37.5569 239.715 37.5431 235.095 37.5281 230.476C37.5301 221.019 37.5321 211.562 37.534 202.104Z" fill="#191925"/>
</g>
<path id="lineas atras mobile" d="M36.3331 133.166L53.333 168.165M36.3331 133.166L56.1663 122.666M36.3331 133.166L26.9999 24.6665M72.4994 109.832L80.666 67.8328M72.4994 109.832L8.33337 50.333M72.4994 109.832L33.8853 104.71M72.4994 109.832L98.1659 81.8327M72.4994 109.832L56.1663 122.666M72.4994 109.832L92.3326 110.999M61.9995 67.8328L2.50009 98.1658L33.8853 104.71M61.9995 67.8328L21.1666 32.8331L112.92 63.8882M61.9995 67.8328L92.3326 110.999M61.9995 67.8328L64.3328 9.5M172.832 84.166L126.712 68.5563M141.332 29.3331L112.92 63.8882M98.1659 81.8327L92.3326 110.999M98.1659 81.8327L80.666 67.8328M98.1659 81.8327L126.712 68.5563M98.1659 81.8327L112.92 63.8882M92.3326 110.999L112.166 145.999M92.3326 110.999L159.999 91.1659M92.3326 110.999L79.4994 130.249M92.3326 110.999L89.4159 147.749M80.666 67.8328L101.666 19.9999M101.666 19.9999L26.9999 24.6665M101.666 19.9999L159.999 91.1659M26.9999 24.6665L105.166 44.4997M105.166 44.4997L130.832 23.4999M105.166 44.4997L112.92 63.8882M176.332 47.9996L126.712 68.5563M66.6662 149.499L79.4994 130.249M66.6662 149.499L53.333 168.165M66.6662 149.499L105.166 184.498M66.6662 149.499L89.4159 147.749M66.6662 149.499L56.1663 122.666M112.166 145.999L159.999 91.1659M112.166 145.999L126.712 68.5563M112.166 145.999L121.499 166.999M112.166 145.999L68.9995 176.332M112.166 145.999L89.4159 147.749M112.166 145.999L105.166 184.498M159.999 91.1659L138.999 128.499M79.4994 130.249L56.1663 122.666M33.8853 104.71L56.1663 122.666M126.712 68.5563L112.92 63.8882M133.166 205.498L121.499 166.999M133.166 205.498L105.166 184.498M133.166 205.498L103.999 224.165M121.499 166.999L157.665 172.832L138.999 128.499M121.499 166.999L138.999 128.499M53.333 168.165L25.8332 206.665L47.4163 191.498M68.9995 176.332L103.999 224.165M68.9995 176.332L47.4163 191.498M103.999 224.165L66.6662 211.331M103.999 224.165L105.166 184.498M47.4163 191.498L105.166 184.498M47.4163 191.498L66.6662 211.331M105.166 184.498L66.6662 211.331M105.166 184.498L68.9995 249.831V228.831L28.1665 226.498L66.6662 211.331" stroke="#202635" stroke-width="0.5"/>
<g id="lineas con puntos mobile">
<path id="lineas adelante mobile" d="M170.499 147.165L142.499 158.832M142.499 158.832L135.499 119.166M142.499 158.832L163.499 182.165M142.499 158.832L121.499 175.165M142.499 158.832L119.166 154.165M142.499 158.832L154.165 119.166M135.499 119.166L119.166 154.165M135.499 119.166L116.832 98.1659M135.499 119.166H154.165M135.499 119.166L107.499 126.166M135.499 119.166L142.499 86.4993M119.166 154.165L107.499 126.166M119.166 154.165L121.499 175.165M119.166 154.165L93.4992 170.499M107.499 126.166L77.1661 119.166M107.499 126.166L116.832 98.1659M107.499 126.166L93.4992 170.499M107.499 126.166L95.8326 102.832M107.499 126.166L81.8327 144.832M77.1661 119.166L81.8327 144.832M77.1661 119.166L53.8329 135.499M77.1661 119.166L74.8327 98.1659M81.8327 144.832L53.8329 135.499M81.8327 144.832L93.4992 170.499M81.8327 144.832L63.1662 172.832M53.8329 135.499L49.1663 158.832M53.8329 135.499L32.8331 154.165M53.8329 135.499L16.5 133.166M53.8329 135.499L49.1663 107.499M49.1663 158.832L63.1662 172.832M49.1663 158.832L32.8331 154.165M63.1662 172.832L93.4992 170.499M63.1662 172.832L49.1663 189.165M93.4992 170.499L121.499 175.165M93.4992 170.499L72.4994 193.832M93.4992 170.499C97.1441 179.611 99.1876 184.719 102.832 193.832M121.499 175.165L126.166 189.165M72.4994 193.832L49.1663 189.165M72.4994 193.832H102.832M72.4994 193.832L42.1664 214.831M72.4994 193.832L93.4992 219.498M102.832 193.832L70.1661 217.165M102.832 193.832L119.166 207.831M102.832 193.832L126.166 189.165M70.1661 217.165L53.8329 238.165M70.1661 217.165L42.1664 214.831M70.1661 217.165L84.166 238.165M49.1663 189.165L23.4999 212.498L42.1664 214.831M49.1663 189.165L23.4999 177.498L32.8331 154.165M42.1664 214.831L23.4999 235.831L53.8329 238.165M16.5 133.166L49.1663 107.499M16.5 133.166L23.4999 102.832M53.8329 238.165L66.6662 255.664L84.166 238.165M53.8329 238.165L32.8331 260.331M84.166 238.165H109.832L93.4992 219.498M93.4992 219.498L119.166 207.831M147.165 203.165L119.166 207.831M147.165 203.165L163.499 182.165M147.165 203.165L126.166 189.165M163.499 182.165L126.166 189.165M116.832 98.1659L95.8326 102.832M116.832 98.1659L130.832 70.1661M116.832 98.1659L142.499 86.4993M95.8326 102.832L74.8327 98.1659M95.8326 102.832L105.166 77.1661M74.8327 98.1659L49.1663 107.499M74.8327 98.1659L49.1663 88.8326M74.8327 98.1659V67.8328M74.8327 98.1659L105.166 77.1661M49.1663 107.499V88.8326M49.1663 88.8326L74.8327 67.8328M49.1663 88.8326L42.1664 63.1662M49.1663 88.8326L23.4999 102.832M74.8327 67.8328L105.166 77.1661M74.8327 67.8328L42.1664 63.1662M74.8327 67.8328L88.8326 46.833M105.166 77.1661L130.832 70.1661M105.166 77.1661L88.8326 46.833M105.166 77.1661L116.832 53.8329L137.832 28.1665L114.499 30.4998M130.832 70.1661L142.499 86.4993M130.832 70.1661L137.832 53.8329M130.832 70.1661L170.499 63.1662M142.499 86.4993L161.165 91.1659L154.165 119.166M114.499 30.4998L137.832 53.8329M114.499 30.4998L88.8326 46.833M114.499 30.4998L86.4993 28.1665M137.832 53.8329L159.999 36.3331M88.8326 46.833L56.1663 44.4997M88.8326 46.833L86.4993 28.1665M42.1664 63.1662L56.1663 44.4997M42.1664 63.1662L32.8331 42.1664M42.1664 63.1662L25.8332 79.4994M56.1663 44.4997L63.1662 21.1666M56.1663 44.4997L86.4993 28.1665M56.1663 44.4997L32.8331 42.1664M63.1662 21.1666L86.4993 28.1665M63.1662 21.1666L105.166 8.33337L86.4993 28.1665M63.1662 21.1666L25.8332 16.5L32.8331 42.1664M32.8331 42.1664L14.1666 32.8331L4.8334 58.4996M32.8331 42.1664L4.8334 58.4996M32.8331 42.1664L25.8332 79.4994M4.8334 58.4996L25.8332 79.4994M25.8332 79.4994L0.166779 91.1659V121.499L23.4999 102.832M25.8332 79.4994L23.4999 102.832" stroke="url(#paint1_radial_12_420)" stroke-opacity="0.6" stroke-width="0.75"/>
<mask id="mask2_12_420" style="mask-type:alpha" maskUnits="userSpaceOnUse" x="22" y="20" width="122" height="220">
<path id="dots mobile" fill-rule="evenodd" clip-rule="evenodd" d="M64.3328 21.1666C64.3328 21.8109 63.8105 22.3333 63.1662 22.3333C62.5219 22.3333 61.9995 21.8109 61.9995 21.1666C61.9995 20.5223 62.5219 19.9999 63.1662 19.9999C63.8105 19.9999 64.3328 20.5223 64.3328 21.1666ZM86.4993 29.3332C87.1436 29.3332 87.666 28.8109 87.666 28.1665C87.666 27.5222 87.1436 26.9999 86.4993 26.9999C85.855 26.9999 85.3327 27.5222 85.3327 28.1665C85.3327 28.8109 85.855 29.3332 86.4993 29.3332ZM33.9998 42.1664C33.9998 42.8107 33.4775 43.333 32.8331 43.333C32.1888 43.333 31.6665 42.8107 31.6665 42.1664C31.6665 41.5221 32.1888 40.9997 32.8331 40.9997C33.4775 40.9997 33.9998 41.5221 33.9998 42.1664ZM56.1663 45.6664C56.8106 45.6664 57.3329 45.144 57.3329 44.4997C57.3329 43.8554 56.8106 43.333 56.1663 43.333C55.5219 43.333 54.9996 43.8554 54.9996 44.4997C54.9996 45.144 55.5219 45.6664 56.1663 45.6664ZM88.8326 47.9997C89.477 47.9997 89.9993 47.4773 89.9993 46.833C89.9993 46.1887 89.477 45.6664 88.8326 45.6664C88.1883 45.6664 87.666 46.1887 87.666 46.833C87.666 47.4773 88.1883 47.9997 88.8326 47.9997ZM74.8328 96.9992C75.4771 96.9992 75.9994 97.5215 75.9994 98.1659C75.9994 98.8102 75.4771 99.3325 74.8328 99.3325C74.1884 99.3325 73.6661 98.8102 73.6661 98.1659C73.6661 97.5215 74.1884 96.9992 74.8328 96.9992ZM106.332 77.1661C106.332 77.8104 105.81 78.3327 105.166 78.3327C104.521 78.3327 103.999 77.8104 103.999 77.1661C103.999 76.5217 104.521 75.9994 105.166 75.9994C105.81 75.9994 106.332 76.5217 106.332 77.1661ZM49.1663 89.9993C49.8107 89.9993 50.333 89.477 50.333 88.8326C50.333 88.1883 49.8107 87.666 49.1663 87.666C48.522 87.666 47.9997 88.1883 47.9997 88.8326C47.9997 89.477 48.522 89.9993 49.1663 89.9993ZM24.6666 102.832C24.6666 103.477 24.1442 103.999 23.4999 103.999C22.8556 103.999 22.3333 103.477 22.3333 102.832C22.3333 102.188 22.8556 101.666 23.4999 101.666C24.1442 101.666 24.6666 102.188 24.6666 102.832ZM42.1664 64.3328C42.8107 64.3328 43.3331 63.8105 43.3331 63.1662C43.3331 62.5219 42.8107 61.9995 42.1664 61.9995C41.5221 61.9995 40.9997 62.5219 40.9997 63.1662C40.9997 63.8105 41.5221 64.3328 42.1664 64.3328ZM26.9999 79.4994C26.9999 80.1437 26.4775 80.666 25.8332 80.666C25.1889 80.666 24.6666 80.1437 24.6666 79.4994C24.6666 78.8551 25.1889 78.3327 25.8332 78.3327C26.4775 78.3327 26.9999 78.8551 26.9999 79.4994ZM77.1661 120.332C77.8104 120.332 78.3327 119.81 78.3327 119.166C78.3327 118.521 77.8104 117.999 77.1661 117.999C76.5217 117.999 75.9994 118.521 75.9994 119.166C75.9994 119.81 76.5217 120.332 77.1661 120.332ZM50.333 107.499C50.333 108.143 49.8107 108.666 49.1663 108.666C48.522 108.666 47.9997 108.143 47.9997 107.499C47.9997 106.855 48.522 106.332 49.1663 106.332C49.8107 106.332 50.333 106.855 50.333 107.499ZM95.8326 103.999C96.4769 103.999 96.9992 103.477 96.9992 102.832C96.9992 102.188 96.4769 101.666 95.8326 101.666C95.1882 101.666 94.6659 102.188 94.6659 102.832C94.6659 103.477 95.1882 103.999 95.8326 103.999ZM122.666 175.165C122.666 175.809 122.143 176.332 121.499 176.332C120.855 176.332 120.332 175.809 120.332 175.165C120.332 174.521 120.855 173.998 121.499 173.998C122.143 173.998 122.666 174.521 122.666 175.165ZM53.833 136.666C54.4773 136.666 54.9996 136.143 54.9996 135.499C54.9996 134.855 54.4773 134.332 53.833 134.332C53.1886 134.332 52.6663 134.855 52.6663 135.499C52.6663 136.143 53.1886 136.666 53.833 136.666ZM75.9994 67.8328C75.9994 68.4771 75.4771 68.9995 74.8328 68.9995C74.1884 68.9995 73.6661 68.4771 73.6661 67.8328C73.6661 67.1885 74.1884 66.6662 74.8328 66.6662C75.4771 66.6662 75.9994 67.1885 75.9994 67.8328ZM117.999 53.833C117.999 54.4773 117.477 54.9996 116.832 54.9996C116.188 54.9996 115.666 54.4773 115.666 53.833C115.666 53.1886 116.188 52.6663 116.832 52.6663C117.477 52.6663 117.999 53.1886 117.999 53.833ZM126.166 43.333C126.81 43.333 127.332 42.8107 127.332 42.1664C127.332 41.5221 126.81 40.9997 126.166 40.9997C125.521 40.9997 124.999 41.5221 124.999 42.1664C124.999 42.8107 125.521 43.333 126.166 43.333ZM138.999 53.833C138.999 54.4773 138.476 54.9996 137.832 54.9996C137.188 54.9996 136.666 54.4773 136.666 53.833C136.666 53.1886 137.188 52.6663 137.832 52.6663C138.476 52.6663 138.999 53.1886 138.999 53.833ZM130.832 71.3328C131.477 71.3328 131.999 70.8105 131.999 70.1661C131.999 69.5218 131.477 68.9995 130.832 68.9995C130.188 68.9995 129.666 69.5218 129.666 70.1661C129.666 70.8105 130.188 71.3328 130.832 71.3328ZM143.665 86.4993C143.665 87.1436 143.143 87.666 142.499 87.666C141.854 87.666 141.332 87.1436 141.332 86.4993C141.332 85.855 141.854 85.3327 142.499 85.3327C143.143 85.3327 143.665 85.855 143.665 86.4993ZM116.832 99.3325C117.477 99.3325 117.999 98.8102 117.999 98.1659C117.999 97.5215 117.477 96.9992 116.832 96.9992C116.188 96.9992 115.666 97.5215 115.666 98.1659C115.666 98.8102 116.188 99.3325 116.832 99.3325ZM115.666 30.4998C115.666 31.1442 115.143 31.6665 114.499 31.6665C113.855 31.6665 113.332 31.1442 113.332 30.4998C113.332 29.8555 113.855 29.3332 114.499 29.3332C115.143 29.3332 115.666 29.8555 115.666 30.4998ZM142.499 159.999C143.143 159.999 143.665 159.476 143.665 158.832C143.665 158.188 143.143 157.665 142.499 157.665C141.854 157.665 141.332 158.188 141.332 158.832C141.332 159.476 141.854 159.999 142.499 159.999ZM120.332 154.165C120.332 154.81 119.81 155.332 119.166 155.332C118.521 155.332 117.999 154.81 117.999 154.165C117.999 153.521 118.521 152.999 119.166 152.999C119.81 152.999 120.332 153.521 120.332 154.165ZM93.4993 220.665C94.1436 220.665 94.6659 220.142 94.6659 219.498C94.6659 218.854 94.1436 218.331 93.4993 218.331C92.8549 218.331 92.3326 218.854 92.3326 219.498C92.3326 220.142 92.8549 220.665 93.4993 220.665ZM85.3327 238.165C85.3327 238.809 84.8103 239.331 84.166 239.331C83.5217 239.331 82.9994 238.809 82.9994 238.165C82.9994 237.52 83.5217 236.998 84.166 236.998C84.8103 236.998 85.3327 237.52 85.3327 238.165ZM42.1664 215.998C42.8107 215.998 43.3331 215.476 43.3331 214.831C43.3331 214.187 42.8107 213.665 42.1664 213.665C41.5221 213.665 40.9997 214.187 40.9997 214.831C40.9997 215.476 41.5221 215.998 42.1664 215.998ZM64.3328 172.832C64.3328 173.476 63.8105 173.998 63.1662 173.998C62.5219 173.998 61.9995 173.476 61.9995 172.832C61.9995 172.188 62.5219 171.665 63.1662 171.665C63.8105 171.665 64.3328 172.188 64.3328 172.832ZM107.499 127.332C108.143 127.332 108.666 126.81 108.666 126.166C108.666 125.521 108.143 124.999 107.499 124.999C106.855 124.999 106.332 125.521 106.332 126.166C106.332 126.81 106.855 127.332 107.499 127.332ZM73.6661 193.832C73.6661 194.476 73.1438 194.998 72.4994 194.998C71.8551 194.998 71.3328 194.476 71.3328 193.832C71.3328 193.187 71.8551 192.665 72.4994 192.665C73.1438 192.665 73.6661 193.187 73.6661 193.832ZM49.1663 190.332C49.8107 190.332 50.333 189.809 50.333 189.165C50.333 188.521 49.8107 187.998 49.1663 187.998C48.522 187.998 47.9997 188.521 47.9997 189.165C47.9997 189.809 48.522 190.332 49.1663 190.332ZM54.9996 238.165C54.9996 238.809 54.4773 239.331 53.833 239.331C53.1886 239.331 52.6663 238.809 52.6663 238.165C52.6663 237.52 53.1886 236.998 53.833 236.998C54.4773 236.998 54.9996 237.52 54.9996 238.165ZM70.1661 218.331C70.8105 218.331 71.3328 217.809 71.3328 217.165C71.3328 216.52 70.8105 215.998 70.1661 215.998C69.5218 215.998 68.9995 216.52 68.9995 217.165C68.9995 217.809 69.5218 218.331 70.1661 218.331ZM82.9994 144.832C82.9994 145.476 82.477 145.999 81.8327 145.999C81.1884 145.999 80.666 145.476 80.666 144.832C80.666 144.188 81.1884 143.665 81.8327 143.665C82.477 143.665 82.9994 144.188 82.9994 144.832ZM135.499 120.332C136.143 120.332 136.666 119.81 136.666 119.166C136.666 118.521 136.143 117.999 135.499 117.999C134.855 117.999 134.332 118.521 134.332 119.166C134.332 119.81 134.855 120.332 135.499 120.332ZM93.4993 171.665C94.1436 171.665 94.6659 171.143 94.6659 170.499C94.6659 169.854 94.1436 169.332 93.4993 169.332C92.8549 169.332 92.3326 169.854 92.3326 170.499C92.3326 171.143 92.8549 171.665 93.4993 171.665ZM103.999 193.832C103.999 194.476 103.477 194.998 102.833 194.998C102.188 194.998 101.666 194.476 101.666 193.832C101.666 193.187 102.188 192.665 102.833 192.665C103.477 192.665 103.999 193.187 103.999 193.832ZM126.166 190.332C126.81 190.332 127.332 189.809 127.332 189.165C127.332 188.521 126.81 187.998 126.166 187.998C125.521 187.998 124.999 188.521 124.999 189.165C124.999 189.809 125.521 190.332 126.166 190.332ZM120.332 207.832C120.332 208.476 119.81 208.998 119.166 208.998C118.521 208.998 117.999 208.476 117.999 207.832C117.999 207.187 118.521 206.665 119.166 206.665C119.81 206.665 120.332 207.187 120.332 207.832ZM49.1663 159.999C49.8107 159.999 50.333 159.476 50.333 158.832C50.333 158.188 49.8107 157.665 49.1663 157.665C48.522 157.665 47.9997 158.188 47.9997 158.832C47.9997 159.476 48.522 159.999 49.1663 159.999Z" fill="white"/>
</mask>
<g mask="url(#mask2_12_420)">
<rect id="bg gradient mobile" x="13" y="10.6667" width="143.989" height="233.331" fill="url(#paint2_linear_12_420)"/>
</g>
</g>
</g>
</g>
</g>
</g>
<defs>
<filter id="filter0_f_12_420" x="0.5" y="0.5" width="169" height="258.331" filterUnits="userSpaceOnUse" color-interpolation-filters="sRGB">
<feFlood flood-opacity="0" result="BackgroundImageFix"/>
<feBlend mode="normal" in="SourceGraphic" in2="BackgroundImageFix" result="shape"/>
<feGaussianBlur stdDeviation="6.25" result="effect1_foregroundBlur_12_420"/>
</filter>
<filter id="filter1_i_12_420" x="13" y="13" width="144" height="233.331" filterUnits="userSpaceOnUse" color-interpolation-filters="sRGB">
<feFlood flood-opacity="0" result="BackgroundImageFix"/>
<feBlend mode="normal" in="SourceGraphic" in2="BackgroundImageFix" result="shape"/>
<feColorMatrix in="SourceAlpha" type="matrix" values="0 0 0 0 0 0 0 0 0 0 0 0 0 0 0 0 0 0 127 0" result="hardAlpha"/>
<feOffset/>
<feGaussianBlur stdDeviation="7.5"/>
<feComposite in2="hardAlpha" operator="arithmetic" k2="-1" k3="1"/>
<feColorMatrix type="matrix" values="0 0 0 0 0.466667 0 0 0 0 0.054902 0 0 0 0 1 0 0 0 0.13 0"/>
<feBlend mode="normal" in2="shape" result="effect1_innerShadow_12_420"/>
</filter>
<linearGradient id="paint0_linear_12_420" x1="85" y1="13" x2="85" y2="246.331" gradientUnits="userSpaceOnUse">
<stop stop-color="#35068C"/>
<stop offset="0.167318" stop-color="#4208A3"/>
<stop offset="0.395715" stop-color="#770EFF"/>
<stop offset="0.54184" stop-color="#5D3CFF"/>
<stop offset="0.697789" stop-color="#3580FD"/>
<stop offset="0.864789" stop-color="#2897FD"/>
<stop offset="1" stop-color="#01DCFD"/>
</linearGradient>
<radialGradient id="paint1_radial_12_420" cx="0" cy="0" r="1" gradientUnits="userSpaceOnUse" gradientTransform="translate(85.3327 134.332) rotate(90) scale(125.999 90.3623)">
<stop stop-color="white" stop-opacity="0.5"/>
<stop offset="1" stop-color="white" stop-opacity="0.01"/>
</radialGradient>
<linearGradient id="paint2_linear_12_420" x1="84.9943" y1="10.6667" x2="84.9943" y2="243.998" gradientUnits="userSpaceOnUse">
<stop stop-color="#35068C"/>
<stop offset="0.167318" stop-color="#4208A3"/>
<stop offset="0.395715" stop-color="#770EFF"/>
<stop offset="0.54184" stop-color="#5D3CFF"/>
<stop offset="0.697789" stop-color="#3580FD"/>
<stop offset="0.864789" stop-color="#2897FD"/>
<stop offset="1" stop-color="#01DCFD"/>
</linearGradient>
</defs>
</svg>
